<svg width="900" height="800" viewBox="0 0 900 900" fill="none" xmlns="http://www.w3.org/2000/svg">
<g clip-path="url(#clip0)">
<g filter="url(#filter0_d)">
<path d="M832.711 710.004C778.659 784.373 689.1 821.899 590.688 844.551C492.691 867.025 386.255 874.446 315.509 824.244C244.94 774.457 209.883 666.631 225.787 576.712C242.105 486.614 309.799 414.246 391.313 344.292C473.42 274.574 569.762 207.093 660.507 219.201C751.667 231.129 837.465 322.053 871.091 423.121C905.132 524.01 886.764 635.636 832.711 710.004Z" fill="#F78D1E"/>
</g>
</g>
<path d="M320.299 576.926C315.769 573.726 309.971 575.146 307.07 580.194C295.456 600.405 262.244 646.538 202.299 643.362C228.933 669.303 284.318 651.885 323.188 594.186C326.864 588.73 325.487 580.591 320.299 576.926Z" fill="#C9B8A3"/>
<path d="M725.66 618.335L760.434 676.759C762.958 680.972 764.829 685.526 766.012 690.294L772.699 717.064C775.656 728.868 771.261 747.121 769.968 752.029C769.761 752.858 769.621 753.303 769.621 753.303L768.859 766.417H822.835L815.386 726.112C815.197 724.191 814.922 722.271 814.526 720.375L801.248 656.884L793.518 596.729L784.264 530.415L744.169 533.488L725.66 618.335Z" fill="#7C8A8F"/>
<path d="M460.35 564.33L466.525 593.649L474.231 686.196L488.112 743.279L485.009 751.516L478.858 767.946L493.477 767.55L501.457 767.318L521.66 766.763L534.383 766.422L526.678 744.809L515.875 676.941C515.875 676.941 518.972 595.197 517.423 590.57L460.35 564.33Z" fill="#7C8A8F"/>
<path d="M477.329 590.53L491.21 624.452L518.973 616.746L588.385 624.452L657.798 613.667L665.504 641.431L668.765 660.154C670.685 671.213 670.478 682.553 668.137 693.539L664.504 710.732C663.858 713.786 663.047 716.792 662.102 719.73C659.486 727.717 655.762 735.277 651.019 742.221L640.813 757.121L637.991 767.492L636.186 774.082H691.718L697.893 754.024L703.13 713.158C704.764 700.459 709.135 688.241 715.969 677.414L731.837 652.216L759.6 596.688C759.6 596.688 798.141 530.375 795.068 533.447V505.683C788.887 507.232 685.56 488.722 685.56 488.722C685.56 488.722 520.503 499.507 512.797 499.507C505.097 499.507 481.956 518.017 477.329 518.017C472.702 518.017 477.329 590.53 477.329 590.53Z" fill="#8C999F"/>
<path d="M179.558 620.197C179.613 627.549 187.343 636.987 189.782 641.621C198.244 657.539 209.308 672.238 221.135 685.797C230.347 696.375 243.826 702.124 257.713 701.605C259.39 701.526 261.072 701.392 262.755 701.148L275.691 699.252C291.712 696.917 305.356 686.394 311.696 671.506C338.465 608.564 330.601 633.756 346.219 561.273L385.541 542.775L422.582 525.418L437.225 573.612L436.951 580.66L436.219 601.675L435.677 616.807L411.005 669.257L409.456 706.269L418.485 717.256L444.949 749.446L451.161 755.707L460.354 764.901L467.597 754.433L472.206 747.788L480.448 735.887L488.123 724.791C497.371 723.249 457.264 713.976 457.264 713.976L444.949 700.118L486.575 650.759L518.977 632.238L532.864 599.858L537.503 539.684C537.503 539.684 631.947 559.724 636.587 561.273C641.226 562.815 746.491 550.86 746.491 550.86L783.508 531.198L798.529 520.785L798.145 501.117C790.665 475.383 776.32 460.879 751.862 449.948L711.047 431.755C697.324 425.622 682.358 422.665 667.361 423.074L576.032 425.519L481.966 414.746L421.905 393.651L416.046 391.621C413.114 390.591 410.109 389.829 407.073 389.396C395.734 387.689 384.077 389.963 374.122 396.041L371.952 397.34L368.239 399.62L353.949 408.32L349.286 411.173C344.323 414.179 339.769 417.757 335.673 421.8C334.856 422.586 334.069 423.397 333.313 424.244L332.173 425.488C331.686 426.006 331.222 426.549 330.765 427.116L330.192 427.793L329.65 428.475C328.918 429.366 328.217 430.286 327.534 431.213C326.723 432.347 325.937 433.487 325.205 434.657C324.553 435.657 323.931 436.688 323.334 437.718C322.712 438.748 322.139 439.833 321.596 440.894L321.109 441.815L312.269 482.602C312.269 482.602 307.685 490.923 299.961 507.305C296.351 514.871 294.699 526.528 293.803 538.276C293.395 543.208 293.175 548.147 292.962 552.804L292.907 553.701C292.688 559.425 292.529 564.687 292.23 568.973C291.877 574.856 290.981 580.928 289.792 587.007C285.72 607.857 278.05 628.793 275.527 642.73C273.356 654.826 266.687 664.129 257.274 667.708C251.391 669.988 244.454 669.988 236.906 667.001C223.025 661.502 212.533 647.156 206.894 633.786C204.669 628.525 201.846 594.054 194.391 594.597C192.574 594.731 191.19 596.444 190.788 598.231C190.379 600.023 190.654 601.864 190.788 603.681C190.916 605.528 190.867 607.449 189.892 608.997C188.24 611.521 184.74 611.985 182.436 613.881C180.345 615.618 179.528 617.783 179.558 620.197Z" fill="#A4B1B7"/>
<path d="M320.654 544.342L333.676 524.193C339.138 529.856 344.009 535.74 348.447 541.983L346.868 547.226L329.75 568.241L306.193 556.096L320.654 544.342Z" fill="#B3BFC4"/>
<path d="M337.724 562.742L338.51 590.732L324.629 643.175L315.564 584.562L308.406 562.669C312.363 562.346 316.393 561.694 320.252 560.596C325.11 560.712 332.883 562.468 337.724 562.742Z" fill="#8C999F"/>
<path d="M257.274 667.745C261.975 668.257 265.998 668.513 265.998 668.513L283.745 649.235L286.055 626.861L289.78 587.043C285.714 607.888 278.032 628.83 275.533 642.761C273.357 654.857 266.669 664.16 257.274 667.745Z" fill="#B3BFC4"/>
<path d="M799.689 504.279C799.689 504.279 810.486 598.375 829 623.054C805.865 613.8 784.271 518.161 784.271 518.161L799.689 504.279Z" fill="#A4B1B7"/>
<path d="M445.127 382C449.12 383.079 471.737 386.627 484.802 397.717C495.397 406.71 502.091 417.885 498.854 430.17L489.892 464.14L457.277 495.678L445.127 382Z" fill="#B3BFC4"/>
<path d="M459.59 429.545C461.839 453.145 454.804 475.66 446.708 498.406L437.228 508.984L443.398 445.743L423.347 425.692L409.85 417.4L395.578 405.634C396.597 405.634 398.56 404.908 401.126 403.731C427.755 402.872 455.731 402.536 459.59 429.545Z" fill="#8C999F"/>
<path d="M459.582 429.611C455.723 402.603 427.747 402.938 401.118 403.798C414.116 397.829 443.122 379.99 449.56 382.563C453.473 384.13 463.74 391.257 472.908 397.896C483.108 405.285 487.893 418.064 485.083 430.349L477.322 464.319L446.7 498.473C454.796 475.726 461.831 453.211 459.582 429.611Z" fill="#7C8A8F"/>
<path d="M257.695 701.609C259.378 701.542 261.073 701.402 262.761 701.152L275.667 699.25C291.707 696.915 305.35 686.386 311.696 671.51C338.465 608.574 330.595 633.748 346.214 561.283L385.547 542.773L422.564 525.416L437.207 573.61L436.214 601.679L458.819 548.949L449.564 494.945L397.112 510.376L375.519 535.055L336.356 562.435L321.524 621.438C321.524 621.438 312.538 653.934 295.316 675.424C284.476 688.953 266.431 689.751 257.695 701.609Z" fill="#8C999F"/>
<path d="M336.785 471.907C336.785 476.309 339.096 480.077 342.382 481.766C343.351 481.4 344.369 481.071 345.412 480.821C347.868 480.126 350.435 479.687 352.886 479.547C354.55 477.651 355.593 475.035 355.641 472.164C351.173 469.225 346.71 465.872 342.754 462.147L342.571 461.964C339.163 463.579 336.785 467.445 336.785 471.907Z" fill="#8C999F"/>
<path d="M336.777 471.907C336.777 476.309 339.088 480.077 342.374 481.766C343.343 481.4 344.361 481.071 345.404 480.821C344.526 474.596 343.648 468.371 342.746 462.147L342.563 461.964C339.155 463.579 336.777 467.445 336.777 471.907Z" fill="#7C8A8F"/>
<path d="M807.216 752.261L800.278 753.992L801.729 766.539H817.994C816.238 762.162 814.153 757.467 814.153 757.467L807.216 752.261Z" fill="#E2CFB4"/>
<path d="M781.181 752.883C781.181 752.883 779.145 761.68 778.219 766.588H791.295L790.436 756.358L781.181 752.883Z" fill="#E2CFB4"/>
<path d="M768.854 766.655H771.811L773.085 756.425L769.964 752.261C769.756 753.09 769.616 753.535 769.616 753.535L768.854 766.655Z" fill="#E2CFB4"/>
<path d="M662.315 774.318H678.629V763.155L670.13 760.039L662.315 774.318Z" fill="#E2CFB4"/>
<path d="M636.184 774.318H654.394C655.437 768.495 656.247 761.289 656.247 761.289L646.993 760.039L637.989 769.013L636.184 774.318Z" fill="#E2CFB4"/>
<path d="M500.97 756.358L499.727 767.484L516.455 766.929C515.687 762.583 513.907 755.779 513.907 755.779L505.762 752.883L500.97 756.358Z" fill="#E2CFB4"/>
<path d="M478.858 768.069L493.476 767.673L494.287 755.156L486.191 751.687C486.191 751.687 485.728 751.638 485.009 751.638L478.858 768.069Z" fill="#E2CFB4"/>
<path d="M459.583 736.485L472.196 747.727L480.432 735.839C475.433 733.595 464.216 729.547 464.216 729.547L459.583 736.485Z" fill="#E2CFB4"/>
<path d="M451.165 755.714L460.352 764.901L467.588 754.446C463.498 751.416 455.536 746.971 455.536 746.971L451.165 755.714Z" fill="#E2CFB4"/>
<path d="M793.61 742.06C802.626 742.06 811.637 740.432 820.129 737.195C821.921 736.512 822.823 734.513 822.141 732.72C821.458 730.928 819.458 730.019 817.66 730.714C803.504 736.098 787.77 736.567 773.34 732.007C771.511 731.44 769.56 732.446 768.987 734.275C768.414 736.104 769.426 738.049 771.249 738.628C778.503 740.914 786.057 742.06 793.61 742.06Z" fill="#FBEF57"/>
<path d="M694.527 750.518C697.636 750.518 700.739 750.341 703.83 749.993C705.738 749.78 707.104 748.061 706.89 746.158C706.683 744.25 704.964 742.878 703.056 743.098C686.681 744.939 669.855 741.403 655.663 733.13C654.005 732.167 651.883 732.727 650.914 734.38C649.951 736.038 650.512 738.16 652.164 739.129C664.96 746.585 679.719 750.518 694.527 750.518Z" fill="#FBEF57"/>
<path d="M495.652 744.651C507.205 744.651 518.83 742.187 529.322 737.42C531.072 736.627 531.84 734.573 531.047 732.823C530.261 731.079 528.2 730.317 526.457 731.098C513.447 737.011 498.529 739.054 484.471 736.847C482.563 736.566 480.801 737.853 480.503 739.743C480.21 741.639 481.502 743.413 483.398 743.712C487.434 744.34 491.543 744.651 495.652 744.651Z" fill="#FBEF57"/>
<path d="M431.784 737.08C432.54 737.08 433.302 736.836 433.936 736.33C443.611 728.673 450.756 717.876 454.054 705.932C454.566 704.091 453.481 702.177 451.634 701.665C449.787 701.171 447.872 702.238 447.36 704.085C444.452 714.62 438.155 724.137 429.632 730.892C428.127 732.075 427.877 734.257 429.065 735.763C429.748 736.629 430.766 737.08 431.784 737.08Z" fill="#FBEF57"/>
<path d="M790.868 749.595C801.585 749.595 812.315 747.735 822.313 744.053C824.111 743.388 825.031 741.395 824.373 739.596C823.709 737.798 821.715 736.877 819.917 737.542C804.523 743.206 787.253 744.205 771.28 740.352C769.415 739.901 767.543 741.047 767.092 742.907C766.641 744.772 767.787 746.65 769.653 747.101C776.572 748.766 783.717 749.595 790.868 749.595Z" fill="#E63934"/>
<path d="M692.721 757.232C695.873 757.232 699.025 757.031 702.164 756.616C704.06 756.366 705.401 754.628 705.151 752.726C704.901 750.824 703.146 749.489 701.256 749.733C684.333 751.97 666.861 747.459 653.315 737.387C651.778 736.247 649.602 736.564 648.456 738.106C647.316 739.643 647.633 741.819 649.169 742.959C661.636 752.232 677.108 757.232 692.721 757.232Z" fill="#E63934"/>
<path d="M506.911 750.719C514.745 750.719 522.579 749.939 530.211 748.366C532.089 747.982 533.296 746.141 532.912 744.269C532.522 742.391 530.687 741.172 528.809 741.568C514.263 744.562 498.937 744.513 484.483 741.446C482.611 741.05 480.764 742.245 480.368 744.117C479.972 745.988 481.166 747.836 483.038 748.238C490.835 749.896 498.87 750.719 506.911 750.719Z" fill="#E63934"/>
<path d="M437.566 744.013L439.176 743.623C450.948 737.447 459.708 725.851 462.598 712.609C463.006 710.732 461.823 708.884 459.946 708.47C458.08 708.061 456.227 709.25 455.818 711.122C453.356 722.395 445.93 732.241 435.951 737.472C434.256 738.362 433.597 740.459 434.487 742.154C435.109 743.343 436.316 744.013 437.566 744.013Z" fill="#E63934"/>
<path d="M325.809 551.615C319.834 548.506 312.086 550.061 308.099 555.182C292.163 575.691 246.837 622.647 167 620.831C201.914 646.205 276.148 627.5 329.265 568.832C334.295 563.284 332.643 555.164 325.809 551.615Z" fill="#E2CFB4"/>
<path d="M293.805 538.276C296.676 533.99 299.962 529.948 303.565 526.205C309.125 520.401 315.502 515.225 319.891 508.47C325.719 499.465 327.511 488.54 329.139 477.938C330.517 469.043 330.578 456.892 332.772 445.906C333.425 442.601 334.26 439.401 335.4 436.444C337.357 431.347 340.118 426.896 344.24 423.726C352.049 417.678 360.62 412.392 369.594 407.509C371.929 406.235 374.258 405.015 376.648 403.821C386.627 398.693 396.954 394.035 407.074 389.396C395.735 387.689 384.079 389.963 374.124 396.041L371.953 397.34L368.241 399.62L353.951 408.32C348.525 413.283 340.905 416.703 335.674 421.8C334.857 422.586 334.071 423.397 333.315 424.244L332.175 425.488C331.687 426.006 331.224 426.549 330.761 427.116L330.194 427.793L329.651 428.469C328.92 429.366 328.212 430.286 327.536 431.213C326.725 432.347 325.938 433.487 325.207 434.657C324.555 435.657 323.933 436.688 323.335 437.718C322.713 438.748 322.14 439.833 321.598 440.894L321.11 441.815L312.271 482.602C312.271 482.602 307.686 490.923 299.962 507.305C296.353 514.871 294.701 526.528 293.805 538.276Z" fill="#B3BFC4"/>
<path d="M664.503 710.867C663.857 713.921 663.046 716.927 662.101 719.865L674.757 714.061L680.933 663.154L657.791 613.802L665.503 641.566L668.765 660.289C670.685 671.348 670.478 682.688 668.137 693.674L664.503 710.867Z" fill="#A4B1B7"/>
<path d="M409.448 706.394L411.003 669.375L435.687 616.919L436.217 601.787L436.321 598.867C437.845 602.135 439.491 605.299 441.241 608.366C441.613 614.816 441.619 621.303 441.716 627.771L422.568 662.034L416.782 701.37L418.471 717.362L409.448 706.394Z" fill="#B3BFC4"/>
<path d="M767.572 458.423C767.554 457.369 767.535 456.802 767.535 456.802C767.535 456.802 766.743 456.424 765.194 455.741C765.164 456.101 765.127 456.466 765.097 456.851C765.938 457.363 766.767 457.887 767.572 458.423Z" fill="#B5C6CF"/>
<path d="M697.443 577.131C723.37 577.131 745.067 572.68 756.321 560.621C757.9 555.043 759.265 549.287 760.436 543.483L746.493 550.891C733.423 564.316 707.855 569.041 678.373 569.041C667.01 569.041 655.055 568.333 643.015 567.157C605.437 563.505 566.994 555.25 542.712 549.367C578.766 559.804 646.307 577.131 697.443 577.131Z" fill="#637881"/>
<path d="M746.485 550.996L760.427 543.588C767.98 506.253 767.724 466.911 767.572 458.558C766.767 458.022 765.938 457.498 765.097 456.986C763.536 474.965 758.805 516.66 746.485 550.996Z" fill="#758B96"/>
<path d="M539.399 421.172C539.503 420.87 539.607 420.573 539.711 420.271C539.602 420.568 539.493 420.875 539.388 421.172H539.399Z" fill="#B5C6CF"/>
<path d="M516.222 529.92C516.216 529.554 516.216 529.188 516.216 528.81C516.21 511.837 519.8 478.318 539.351 421.515H539.339C518.642 479.641 515.801 513.648 516.222 529.92Z" fill="#758B96"/>
<path d="M517.431 542.989C517.431 542.989 581.375 561.346 643.008 567.339C686.262 571.57 728.375 569.674 746.487 551.073C762.679 505.945 765.764 448.1 765.764 448.1C765.764 448.1 759.204 445.009 746.841 440.864C716.627 430.774 654.695 421.117 564.805 415.367C557.02 414.88 549.052 416.885 540.889 417.971L540.566 418.026C508.182 510.585 517.431 542.989 517.431 542.989Z" fill="#E63934"/>
<path d="M556.757 524.419C623.853 542.935 721.028 535.991 721.028 535.991L746.834 440.822C716.639 430.714 653.328 407.479 564.81 415.326C556.476 446.632 546.113 497.027 556.757 524.419Z" fill="#FBEF57"/>
<path d="M643.177 469.45C612.69 516.614 666.575 524.015 649.164 470.267C666.575 524.015 708.987 496.001 653.876 467.158C708.987 496.001 715.083 448.972 654.553 461.933C715.083 448.972 681.292 410.49 650.804 457.653C681.292 410.49 627.406 403.082 644.817 456.83C627.406 403.082 584.994 431.102 640.099 459.946C584.994 431.102 578.898 478.126 639.422 465.171C578.898 478.126 612.69 516.614 643.177 469.45Z" fill="#E63934"/>
<path d="M735.678 450.362C738.653 451.106 741.64 449.399 742.353 446.552C743.066 443.705 741.231 440.791 738.256 440.047C735.275 439.303 732.288 441.01 731.581 443.857C730.868 446.704 732.703 449.619 735.678 450.362Z" fill="#E63934"/>
<path d="M731.814 465.919C734.783 466.663 737.776 464.956 738.483 462.109C739.196 459.262 737.361 456.348 734.386 455.604C731.411 454.86 728.424 456.567 727.711 459.414C727.004 462.268 728.833 465.176 731.814 465.919Z" fill="#E63934"/>
<path d="M727.938 481.16C730.913 481.903 733.901 480.202 734.614 477.349C735.327 474.508 733.492 471.594 730.517 470.85C727.542 470.106 724.555 471.813 723.842 474.66C723.128 477.508 724.963 480.416 727.938 481.16Z" fill="#E63934"/>
<path d="M724.071 496.723C727.046 497.467 730.033 495.759 730.746 492.912C731.453 490.065 729.625 487.151 726.65 486.407C723.675 485.663 720.681 487.37 719.974 490.218C719.261 493.065 721.096 495.973 724.071 496.723Z" fill="#E63934"/>
<path d="M720.205 513.213C723.186 513.957 726.173 512.25 726.886 509.403C727.593 506.556 725.758 503.642 722.784 502.898C719.809 502.154 716.827 503.861 716.108 506.708C715.407 509.555 717.236 512.464 720.205 513.213Z" fill="#E63934"/>
<path d="M715.583 525.653C718.552 526.403 721.545 524.696 722.258 521.849C722.966 519.002 721.131 516.087 718.156 515.344C715.181 514.6 712.2 516.307 711.48 519.154C710.767 522.001 712.608 524.915 715.583 525.653Z" fill="#E63934"/>
<path d="M696.644 522.589C696.797 525.644 699.528 528.021 702.734 527.826C705.941 527.625 708.38 524.997 708.184 521.931C707.977 518.876 705.252 516.541 702.088 516.736C698.93 516.932 696.492 519.523 696.644 522.589Z" fill="#E63934"/>
<path d="M679.323 523.419C679.415 526.485 682.097 528.9 685.31 528.759C688.523 528.631 691.01 526.04 690.864 522.98C690.723 519.919 688.041 517.535 684.877 517.663C681.713 517.804 679.226 520.352 679.323 523.419Z" fill="#E63934"/>
<path d="M661.99 523.597C662.02 526.67 664.648 529.121 667.866 529.072C671.085 529.047 673.621 526.456 673.542 523.396C673.463 520.323 670.829 517.945 667.671 517.97C664.507 518.013 661.965 520.53 661.99 523.597Z" fill="#E63934"/>
<path d="M644.659 523.786C644.611 526.865 647.183 529.389 650.408 529.383C653.627 529.395 656.23 526.914 656.218 523.847C656.206 520.78 653.633 518.287 650.469 518.281C647.311 518.287 644.708 520.732 644.659 523.786Z" fill="#E63934"/>
<path d="M627.344 523.262C627.192 526.322 629.691 528.926 632.922 529.078C636.147 529.176 638.818 526.731 638.891 523.67C638.964 520.604 636.458 518.074 633.307 517.976C630.167 517.83 627.497 520.195 627.344 523.262Z" fill="#E63934"/>
<path d="M610.05 522.15C609.769 525.204 612.165 527.881 615.402 528.131C618.639 528.375 621.401 526.101 621.578 523.01C621.743 519.973 619.353 517.291 616.225 517.053C613.098 516.815 610.336 519.096 610.05 522.15Z" fill="#E63934"/>
<path d="M592.852 519.865C592.364 522.858 594.602 525.87 597.851 526.218C601.094 526.589 603.984 524.413 604.307 521.365C604.63 518.316 602.381 515.555 599.284 515.207C596.187 514.872 593.358 516.804 592.852 519.865Z" fill="#E63934"/>
<path d="M575.876 516.626C575.053 519.583 577.022 522.589 580.284 523.339C581.899 523.71 583.497 523.442 584.734 522.692C585.978 521.906 586.874 520.626 587.154 519.126C587.435 517.608 587.051 516.163 586.24 514.986C585.441 513.773 584.222 512.852 582.735 512.511C579.772 511.828 576.699 513.675 575.876 516.626Z" fill="#E63934"/>
<path d="M562.371 510.724C561.548 513.675 563.518 516.681 566.779 517.437C568.395 517.803 569.992 517.534 571.229 516.785C572.473 515.998 573.369 514.718 573.65 513.218C573.93 511.706 573.546 510.255 572.735 509.078C571.937 507.865 570.717 506.945 569.23 506.597C566.267 505.92 563.194 507.768 562.371 510.724Z" fill="#E63934"/>
<path d="M566.336 492.768C563.257 492.713 560.721 495.28 560.776 498.493C560.813 501.706 563.312 504.242 566.391 504.15C569.439 504.065 571.914 501.498 571.884 498.426C571.829 495.353 569.39 492.817 566.336 492.768Z" fill="#E63934"/>
<path d="M567.017 475.667C563.938 475.454 561.304 477.874 561.152 481.081C560.969 484.282 563.371 486.958 566.456 487.044C569.504 487.129 572.064 484.702 572.247 481.63C572.387 478.557 570.052 475.881 567.017 475.667Z" fill="#E63934"/>
<path d="M568.634 458.582C565.586 458.204 562.788 460.478 562.483 463.673C562.141 466.862 564.385 469.66 567.463 469.91C570.499 470.16 573.2 467.88 573.529 464.813C573.822 461.746 571.676 458.96 568.634 458.582Z" fill="#E63934"/>
<path d="M571.126 441.823C568.114 441.281 565.212 443.408 564.7 446.572C564.231 449.749 566.31 452.657 569.352 453.071C572.388 453.48 575.223 451.346 575.668 448.304C576.167 445.262 574.149 442.366 571.126 441.823Z" fill="#E63934"/>
<path d="M574.609 425.096C571.621 424.352 568.598 426.309 567.896 429.461C567.238 432.613 569.146 435.637 572.176 436.222C575.169 436.795 578.12 434.826 578.748 431.826C579.412 428.833 577.577 425.833 574.609 425.096Z" fill="#E63934"/>
<path d="M640.438 462.771C640.438 465.966 643.028 468.557 646.223 468.557C649.417 468.557 652.008 465.966 652.008 462.771C652.008 459.577 649.417 456.985 646.223 456.985C643.028 456.985 640.438 459.577 640.438 462.771Z" fill="#FBEF57"/>
<path d="M643.015 567.149C630.322 556.938 618.873 545.549 608.607 533.667C590.769 531.71 572.895 528.728 556.764 524.278C549.839 506.445 551.808 478.864 556.331 453.148C549.442 439.095 544.34 426.798 540.895 417.781L540.572 417.836C519.955 476.773 516.211 511.316 516.218 528.637C516.218 529.015 516.217 529.381 516.224 529.747C516.309 538.843 517.437 542.799 517.437 542.799C517.437 542.799 524.777 544.909 536.872 547.927C560.489 553.816 602.255 563.187 643.015 567.149Z" fill="#CA322F"/>
<path d="M608.606 533.77C606.241 531.033 603.943 528.271 601.699 525.491C600.791 526.04 599.712 526.351 598.572 526.351C598.334 526.351 598.096 526.339 597.852 526.308C594.603 525.961 592.366 522.949 592.853 519.955C593.085 518.565 593.792 517.413 594.78 516.59C586.245 505.214 578.704 493.691 572.114 482.54C571.535 485.095 569.273 486.997 566.621 486.997H566.462C563.378 486.911 560.976 484.235 561.159 481.034C561.305 477.962 563.731 475.608 566.639 475.608C566.767 475.608 566.895 475.614 567.023 475.62C567.444 475.651 567.852 475.73 568.243 475.846C566.822 473.346 565.457 470.871 564.14 468.426C563.335 467.64 562.774 466.61 562.549 465.457C560.336 461.275 558.263 457.196 556.33 453.252C551.807 478.968 549.838 506.549 556.763 524.381C572.894 528.832 590.768 531.813 608.606 533.77ZM581.484 512.267C581.898 512.267 582.313 512.316 582.733 512.414C584.221 512.755 585.44 513.676 586.239 514.889C587.05 516.066 587.434 517.511 587.153 519.029C586.873 520.528 585.977 521.809 584.733 522.595C583.867 523.119 582.831 523.406 581.728 523.406C581.252 523.406 580.77 523.351 580.283 523.241C577.021 522.492 575.052 519.486 575.875 516.529C576.582 513.993 578.954 512.267 581.484 512.267ZM567.993 506.482C568.401 506.482 568.822 506.53 569.236 506.622C570.724 506.969 571.943 507.89 572.742 509.103C573.552 510.28 573.936 511.731 573.656 513.243C573.376 514.743 572.479 516.023 571.236 516.809C570.37 517.334 569.328 517.626 568.224 517.626C567.755 517.626 567.267 517.572 566.786 517.462C563.524 516.706 561.555 513.7 562.378 510.749C563.085 508.207 565.457 506.482 567.993 506.482ZM566.249 492.691H566.341C569.395 492.74 571.833 495.276 571.888 498.349C571.919 501.422 569.444 503.988 566.395 504.074C566.341 504.08 566.292 504.08 566.237 504.08C563.231 504.08 560.817 501.574 560.781 498.416C560.726 495.233 563.213 492.691 566.249 492.691Z" fill="#E1D14D"/>
<path d="M598.566 526.175C599.706 526.175 600.785 525.864 601.693 525.315C599.316 522.364 597.011 519.395 594.774 516.414C593.786 517.237 593.079 518.389 592.847 519.779C592.36 522.773 594.597 525.785 597.846 526.132C598.09 526.163 598.328 526.175 598.566 526.175Z" fill="#CA322F"/>
<path d="M581.729 523.508C582.832 523.508 583.868 523.221 584.734 522.697C585.978 521.91 586.874 520.63 587.154 519.13C587.435 517.612 587.051 516.167 586.24 514.991C585.441 513.777 584.222 512.857 582.735 512.515C582.314 512.418 581.899 512.369 581.485 512.369C578.955 512.369 576.583 514.094 575.876 516.631C575.053 519.587 577.022 522.593 580.284 523.343C580.772 523.453 581.253 523.508 581.729 523.508Z" fill="#CA322F"/>
<path d="M568.218 517.602C569.321 517.602 570.364 517.309 571.229 516.785C572.473 515.999 573.369 514.718 573.65 513.219C573.93 511.707 573.546 510.256 572.735 509.079C571.937 507.866 570.717 506.945 569.23 506.598C568.815 506.506 568.395 506.457 567.986 506.457C565.45 506.457 563.079 508.183 562.371 510.725C561.548 513.676 563.518 516.681 566.779 517.437C567.261 517.547 567.748 517.602 568.218 517.602Z" fill="#CA322F"/>
<path d="M566.232 504.156C566.287 504.156 566.336 504.156 566.391 504.149C569.439 504.064 571.914 501.497 571.884 498.425C571.829 495.352 569.39 492.816 566.336 492.767H566.244C563.208 492.767 560.721 495.309 560.776 498.492C560.813 501.65 563.227 504.156 566.232 504.156Z" fill="#CA322F"/>
<path d="M566.615 487.043C569.267 487.043 571.528 485.14 572.107 482.586C570.778 480.342 569.486 478.105 568.236 475.892C567.846 475.776 567.438 475.697 567.017 475.666C566.889 475.66 566.761 475.654 566.633 475.654C563.725 475.654 561.299 478.007 561.152 481.08C560.969 484.281 563.371 486.957 566.456 487.043H566.615Z" fill="#CA322F"/>
<path d="M564.135 468.355C563.598 467.362 563.068 466.368 562.544 465.386C562.769 466.539 563.33 467.569 564.135 468.355Z" fill="#CA322F"/>
<path d="M321.591 441.112C324.713 443.55 328.535 445.257 332.766 446.123C340.411 447.751 349.33 446.641 357.742 442.495C374.391 434.302 382.743 417.164 376.641 404.038L376.421 403.574C375.281 401.27 373.764 399.24 371.947 397.557L368.234 399.837L353.944 408.537L349.281 411.39C344.318 414.396 339.764 417.975 335.668 422.017C334.851 422.803 334.064 423.614 333.308 424.462L332.168 425.705C331.681 426.224 331.217 426.766 330.754 427.333L330.187 428.01L329.645 428.687C328.913 429.583 328.206 430.503 327.529 431.43C326.718 432.564 325.932 433.704 325.2 434.875C324.548 435.875 323.926 436.905 323.329 437.935C322.707 438.966 322.134 440.051 321.591 441.112Z" fill="#FBEF57"/>
<path d="M325.202 434.773C332.682 437.644 342.283 437.156 351.233 432.736C365.547 425.713 372.874 411.172 368.235 399.735L353.945 408.435L353.08 408.984L349.282 411.288C344.319 414.294 339.766 417.873 335.669 421.915L335.449 422.134C331.572 425.957 328.128 430.188 325.202 434.773Z" fill="#E63934"/>
<path d="M335.452 422.22C337.811 425.579 343.56 426.067 348.711 423.25C354.137 420.269 356.819 414.733 354.704 410.911C354.302 410.179 353.753 409.557 353.082 409.069L349.284 411.374C344.322 414.38 339.768 417.958 335.671 422L335.452 422.22Z" fill="#FBEF57"/>
<defs>
<filter id="filter0_d" x="202.003" y="187.783" width="746.293" height="724.086" filterUnits="userSpaceOnUse" color-interpolation-filters="sRGB">
<feFlood flood-opacity="0" result="BackgroundImageFix"/>
<feColorMatrix in="SourceAlpha" type="matrix" values="0 0 0 0 0 0 0 0 0 0 0 0 0 0 0 0 0 0 127 0"/>
<feOffset dx="20" dy="10"/>
<feGaussianBlur stdDeviation="20"/>
<feColorMatrix type="matrix" values="0 0 0 0 0.968627 0 0 0 0 0.552941 0 0 0 0 0.117647 0 0 0 0.35 0"/>
<feBlend mode="normal" in2="BackgroundImageFix" result="effect1_dropShadow"/>
<feBlend mode="normal" in="SourceGraphic" in2="effect1_dropShadow" result="shape"/>
</filter>
<clipPath id="clip0">
<rect width="796" height="796" fill="white" transform="translate(478.58 -31.2256) rotate(36.8884)"/>
</clipPath>
</defs>
</svg>
