<svg width="411" height="465" viewBox="0 0 411 465" fill="none" xmlns="http://www.w3.org/2000/svg">
<path d="M100.9 324.49C97.5999 328.28 82.6999 328.22 76.0299 329.74C66.0063 332.043 55.8247 333.594 45.5699 334.38C36.4399 335.05 24.79 335.84 15.1 336.45C14.95 337.07 14.7699 337.69 14.5599 338.29C12.4799 338.02 10.5 338.06 8.45996 337.72C27.57 347.05 51.8399 338.15 72.5199 339.17C79.5199 339.52 98.6499 339.17 102.41 347.06C106.33 355.32 91.4899 367.61 86.6699 373.06C73.0399 388.37 56.0799 400 41.9199 414.79C15.4099 442.47 65.0699 427.22 77.6299 422.94C100.33 415.21 125.05 406.26 146.31 395.08C154.64 412.15 163.53 411.33 180.72 411.57C201.38 411.85 202.72 425.38 214.97 438.49C224.61 448.84 243.2 458.85 256.97 462.16C281.05 467.96 281.24 450.51 268.12 435.81C256.34 422.67 231.42 404.67 241.04 383.99C248.04 368.81 266.3 367.99 280.61 370.11C299.53 372.94 316.32 375.61 335.61 375.11C348.8 374.79 373.61 376.65 382.38 363.63C395.06 344.72 347.94 347.19 343.23 334.3C338.9 322.48 369.23 319.86 373.81 308.01C360.65 308.73 342.67 303.59 327.59 303.61C300.32 303.61 274.59 305.44 247.3 301.38C226.67 298.3 201.06 297.12 180.51 300.99C159.51 304.94 139.65 314.5 119.19 320.54" fill="#050519"/>
<path d="M155.04 342.35C137.41 339.63 119.57 336.68 101.84 340.86C84.4001 344.96 66.56 355.98 49.41 363.04C41.89 366.13 34.1 370.04 26.25 370.3C26.1119 370.798 25.9314 371.283 25.7101 371.75C-7.22994 382.29 -1.74997 441.75 38.93 430.28C56.86 425.23 76.61 415.61 92.06 405.38C100.86 399.54 108.85 391.84 118.55 387.48C127.03 383.68 135.86 384.11 144.65 381.83C167.21 376 173.88 356.15 156.09 342.34" fill="#2E2322"/>
<path d="M106.15 311.81C100.02 305.61 75.3001 305.2 64.6001 303.9C53.4201 302.54 41.6001 303.34 30.7201 301.72C28.0201 303.72 23.59 302.89 19.9 303.77C16.71 304.54 13.9 306.48 10.73 306.98C4.55998 311.74 0.01 317.91 0 326.07C0 341.84 15.3501 338.89 26.4501 337.35C51.5066 333.778 76.7905 332.04 102.1 332.15C118.1 332.31 126.83 326.85 113.98 312.68" fill="#2E2322"/>
<path d="M102.19 311.67C98.2604 312.4 92.5804 310.96 88.5004 309.98C83.7704 308.83 76.5004 308.61 71.9604 305.92C70.0804 305.85 70.5003 306.04 68.4803 305.06C62.6003 307.15 57.0004 303.78 51.0104 304.26C57.0104 307.68 66.3604 308.14 73.2004 309.93C57.8104 314.93 37.7804 309.24 23.4004 313.62C37.7504 315.41 53.4004 313.62 67.8204 315.95C75.7304 317.24 97.8204 325.12 101.32 316.01" fill="#5E1F11"/>
<path d="M282.33 297.58C306.52 291.75 328.87 280.03 353.84 277.46C372.84 275.46 387.2 274.93 388.78 297.38C389.34 305.38 388.05 311.19 379.01 311.83C370.12 317.3 359.21 318.37 349.21 320.66C336.53 323.55 323.59 326.97 310.72 328.83C302.13 330.07 283.81 331.66 278.37 322.63C274.44 316.11 277.83 303.1 282.37 297.63" fill="#2E2322"/>
<path d="M338.83 283.67C335.01 283.77 329.93 288.67 325.12 286.62C314.24 294.07 295.96 291.11 285.25 296.92C289.88 298.4 298.4 294.41 302.25 297.84C297.05 298.76 288.56 300.07 284.67 303.93C278.72 309.84 282.07 316.33 289.72 316.07C297.72 315.81 307.99 312.24 316.1 310.82C324.521 309.334 332.718 306.776 340.49 303.21C337.943 303.493 335.366 303.168 332.97 302.26C328.24 306.41 321.26 303.91 316.03 305.94C314.76 302.42 339.36 295.57 343.94 293.4C338.94 295.01 331.33 294.19 326.17 293.49C329.57 291 335.28 286.66 339.73 286.27" fill="#5E1F11"/>
<path d="M252.68 349.67C262.68 345.22 272.04 334.89 280.12 327.67C290.12 318.74 299.63 308.86 306.12 297.1C311.39 287.58 314.06 276.48 315.05 265.96C315.77 258.44 314.05 246.25 317.3 239.63C318.14 240.93 317.78 240.33 318.37 240.69C319 248.96 324.08 261.5 327.74 269.16C326.66 258.84 323.55 249.47 325.39 238.39C327.68 224.66 333.3 211.84 334.97 198.12C337.8 174.93 337.68 149.06 331.05 127.01C329.83 140.14 329.61 152.58 325.88 165.41C323.08 175.06 317.53 185.92 316.23 195.17C316.23 179.83 312.97 167.53 303.23 154.95C294.56 143.72 291.87 129.27 287 114.45C290.58 132.45 292.47 149.8 297.26 167.61C302.19 185.92 306.12 205.61 302.37 224.47C298 246.47 281.16 261.84 278.46 284.17C276.46 300.86 279.46 315.43 271.4 330.95" fill="#5E1F11"/>
<path d="M169.31 354.9C162.46 361.71 140.31 352.9 132.79 350.47C122.161 346.993 112.359 341.37 103.992 333.949C95.625 326.528 88.8716 317.468 84.1503 307.33C66.3203 269.21 78.0503 235.7 81.8003 196.75C83.4703 179.38 79.8003 162.56 72.8003 146.59C88.5403 166.15 99.7102 187.39 101.74 212.54C103.32 232.01 106.36 252.23 115.29 269.84C124.71 288.44 143.01 300.84 160.86 310.63C178.53 320.28 197.07 323.4 196.39 347.63" fill="#5E1F11"/>
<path d="M174.34 73.7998C155.43 60.2898 224.34 122.25 196.23 156.64C168.12 191.03 138.39 198.84 146.23 237.92C108.71 187.92 111.34 176.07 120.35 153.08C107.84 187.08 98.1402 190.94 91.8902 223.76C85.6402 256.58 95.4703 292.76 121.06 326.82C158.56 376.82 280.34 369.9 278.77 319.88C277.2 269.86 319.77 226.78 286.41 166.34C299.21 219.84 254.08 236.34 236.89 244.17C219.7 252 288.5 172.59 235.32 139.45C194.35 113.92 185.29 81.6098 174.34 73.7998Z" fill="#FA9D21"/>
<path d="M232.88 110.67C246.58 124.56 266.38 147.23 271.44 193.67C272.71 223.86 273.52 271.83 263.1 287.46C252.68 303.09 292.28 278.08 304.78 255.15C317.28 232.22 311.04 295.8 284.98 321.85C258.92 347.9 179.34 372.91 154.52 331.23C129.7 289.55 147.42 244.09 134.92 208.98C122.42 173.87 106.78 171.79 118.24 140.52C126.58 165.52 153 186.83 167.57 200.27C196.75 227.23 273.39 152.38 232.88 110.67Z" fill="#F5D92D"/>
<path d="M189.63 345C176.77 343.76 165.79 327.4 161.82 316.61C156.54 302.26 159.82 289.7 160.45 275.17C160.576 270.064 160.052 264.963 158.89 259.99C166.41 275.35 177.76 292.83 179.61 310.86C176.49 300.86 181.61 288.62 186.28 279.91C191.11 270.82 192.78 264.21 192.76 253.97C193.9 262.45 190.49 303.15 204.46 300.4C215.66 298.21 215.33 277.7 214.15 269.82C212.15 256.6 206.22 244.04 209.48 230.48C212.01 219.92 218.72 211.18 227.05 204.48C221.05 218.2 219.05 232.61 225.75 246.62C232.45 260.63 243.35 271.36 242.83 287.91C242.66 293.46 240.25 299.91 237.43 304.68C237.43 301.84 243.23 298.15 245.38 296.04C248.38 293.12 251.96 286.79 256.25 286.19C255.33 292.6 250.01 298.19 248.45 304.65C246.77 311.65 247.35 319.4 244.97 326.2C243.37 330.77 238.97 334.8 235.35 337.83C232.24 340.43 226.59 341.93 224.42 345.3H223.88C222.23 341.12 228.35 332.5 228.71 327.78C229.32 319.73 226.48 311.93 226.65 304.01C226.507 304.02 226.363 304.02 226.22 304.01C225.52 311.08 225.34 316.22 221.09 322.28C218.02 326.65 214.32 332.68 213.49 337.97C209.33 335.7 207.05 324.97 203.72 320.63C199.61 315.22 194.23 309.87 192.72 302.96H192.3C190.77 310.75 193.71 323.08 195.84 330.64C197.2 335.42 199.45 342.84 203.05 346.81C199.55 346.73 193.13 348.01 190.62 345.48" fill="#FCE6A9"/>
<path d="M238.09 211.09C232.45 222.37 232.64 235 231.84 248.16C231.22 258.46 232.22 270.23 225.98 278.64C225.21 276.29 225.76 273.55 225.59 271C225.19 267.437 224.45 263.921 223.38 260.5C221.51 253.38 219.87 246.76 219.85 239.38C219.85 250.7 218.85 260.96 215.1 271.7C210.49 284.99 208.01 299.35 209.53 313.47C210.09 318.6 211.99 326.38 214.67 330.75C214.94 324.99 219.56 320.55 223.09 316.46C227.636 311.013 231.777 305.241 235.48 299.19C241.48 289.77 245.99 280.39 247.48 269.19C248.78 259.808 248.033 250.255 245.29 241.19C242.29 231.49 240.16 222.61 241.79 212.41C243.16 203.8 245.88 194.2 251.12 187.1" fill="#F1781D"/>
<path d="M192.38 297.76C183.81 290.27 179.06 282.95 176.68 271.67C175.11 264.22 177.46 248.36 172.81 242.61C172.11 252.09 170.91 260.45 164.96 268.13C158.35 276.68 152.66 281.32 153.77 293.13C155.4 310.43 169.27 317.06 184.36 320.69C191.95 322.52 197.36 325.19 203.1 330.69C201.72 322.88 189.31 317.86 184.1 312.18C178.137 305.588 174.112 297.476 172.47 288.74C173.33 289.083 174.078 289.657 174.63 290.4" fill="#F1781D"/>
<path d="M167.22 155.27C129.75 142.76 142.32 97.8598 124.6 71.5098C138.93 84.7198 146.13 97.0198 150.52 114.69C154.43 130.46 160.3 145.37 172.43 157.35" fill="#F1781D"/>
<path d="M149.04 346.3C137.27 351.2 119.1 339.65 109.9 331.76C93.9899 318.13 86.8999 298.28 82.3799 277.98C82.3799 278.15 81.54 275.98 81.46 275.79C89.65 280.98 91.6799 292.97 97.2399 300.37C102.75 307.673 110.869 312.563 119.9 314.02C128.9 315.67 137 316.1 144.05 323.02C149.29 328.17 151.77 339.11 156.44 342.69C151.79 336.92 148.24 328.69 149.2 320.56C155.52 326.45 159.53 330.4 167.8 333.5C174.17 335.89 182.44 337.62 187.44 341.66C177.85 341.18 169.13 340.6 160.92 337.13C165.54 340.57 167.82 346.13 171.92 350.13C176.44 354.46 182.79 356.55 187.69 358.86C176.69 357.21 163.46 358.11 155.25 349.45" fill="#F1781D"/>
<path d="M229.75 352.81C254.64 349.92 270.58 334.06 279.94 311.58C286.38 296.11 290.53 281.44 307.75 274.82C302.41 284.48 299.04 295.65 296.15 306.49C293.55 316.22 288.37 322.55 284.15 330.79C292.97 322.64 302.61 313.11 310.88 304.03C315.62 298.82 318.49 294.37 320.56 287.73C321.95 283.26 321.16 274.4 324.43 271.64C326.55 291.79 320.17 315.97 303.94 329.06C291.62 339 276.78 341.2 261.81 344.34C254.57 345.86 250.04 348.67 243.35 351.77" fill="#F1781D"/>
<path d="M236.18 114.47C220.86 104.09 238.76 82.4701 243.51 69.1001C247.72 57.2101 249.12 40.7801 242.3 29.3301C251.79 42.7501 261.23 63.4901 252.82 79.0701C246.82 90.3001 237.22 100.46 238.26 114.47" fill="#F1781D"/>
<path d="M198.04 0C194.21 9.81 184.54 42.07 201.04 46.76C202.11 32.44 198.04 20.1 196.04 6.25" fill="#F1781D"/>
<path d="M176.58 191.98C180.72 164.85 224.3 155.1 213.39 124.09C214.93 141.09 241.25 146.44 238.28 164.68C235.35 159.19 228.76 156.8 224.63 151.9C224.79 154.5 226.16 156.9 225.93 159.68C225.67 163.02 223.76 166.55 223.12 169.94C222.062 176.202 221.317 182.513 220.89 188.85C217.97 180.24 214.95 170.76 214.1 161.62C213.98 172.62 210.1 176.36 202.28 183.47C197.237 188.021 193.379 193.732 191.04 200.11C188.41 192.69 193.68 180.97 198.19 174.88C196.34 178.82 192.36 180.43 189.19 182.75C186.8 184.49 183.82 188.89 181.48 189.9" fill="#F5D92D"/>
<path d="M136.31 307.31C130.75 304.51 124.68 302.31 119.31 299.22C110.42 294.16 105.15 283.65 101.71 274.38C95.7702 258.38 97.2302 242.77 100.16 226.45C101.706 218.369 103.815 210.406 106.47 202.62C106.34 211.38 106.9 217.73 110.95 225.62C115.32 234.17 123.63 238.93 128.73 246.62C125.64 237.62 122.29 225.85 117.64 217.84C126.01 219.07 131.64 233.56 133.51 240.53C135.97 249.61 136.19 259.41 135.51 268.91C130.27 259.27 117.41 255.91 112.15 248.91C117.35 259.31 121.57 269.65 125.92 280.25C127.74 284.68 130.28 289.03 132 293.47C133.72 297.91 134.45 302.24 136.35 306.68" fill="#F5D92D"/>
<path d="M194.32 21.0801C193.32 25.0801 193.32 36.8101 198.44 38.7601C199.81 34.5001 198.9 25.6001 195.36 22.4701" fill="#F5D92D"/>
<path d="M157.84 146.82C150.3 140.82 147.28 132 145.35 122.67C144.35 118.05 143.83 113.44 142.48 108.87C141.34 105.03 139.09 101.57 138.03 98.1401C138.97 100.7 142.09 103.64 143.51 106.5C145.09 109.67 146.44 113.03 147.84 116.24C150.247 121.93 151.998 127.875 153.06 133.96C153.87 137.96 155.61 141.11 157.5 144.74" fill="#F5D92D"/>
<path d="M234.96 103.75C235.35 99.2898 234.04 95.4098 235.69 90.9298C237.47 86.0598 241.13 82.8198 244 78.6798C246.065 75.5926 247.38 72.0655 247.84 68.3798C248.21 65.6298 249.08 60.5198 247.44 58.0098C250.44 67.5398 250.35 75.2998 245.77 84.3398C242.77 90.1598 235.21 96.9598 235.66 103.75" fill="#F5D92D"/>
<path d="M155.04 342.93C137.41 340.22 119.57 337.27 101.84 341.44C84.4001 345.54 66.56 356.56 49.41 363.62C41.89 366.71 34.1 370.62 26.25 370.89C26.1087 371.387 25.9282 371.872 25.7101 372.34C-7.22994 382.87 -1.74997 442.34 38.93 430.86C56.86 425.81 76.61 416.2 92.06 405.96C100.86 400.12 108.85 392.42 118.55 388.06C127.03 384.26 135.86 384.69 144.65 382.42C167.21 376.59 173.88 356.73 156.09 342.92" fill="#2E2322"/>
<path d="M143.83 340.56C112.19 334.8 86.0504 351.15 59.7004 361.03C50.7004 364.41 46.8304 367.03 41.6504 376.03C50.9404 388.18 92.3704 375.49 102.28 368.14C112.55 360.53 117.02 358.96 129.8 357.79C142.8 356.61 147.93 354.54 146.37 341" fill="#5E1F11"/>
<path d="M165.04 357.56C175.88 339.71 190.28 331.22 211.04 339.09C227.04 345.16 231.86 360.09 242.3 372.18C253.24 384.8 267.79 396.86 281.37 406.58C292.8 414.76 306.54 419.67 307.37 435.98C308.29 453.92 292.09 457.91 278.21 462.2C266.88 469.2 252.21 454.96 243.61 448.33C230.36 438.09 221.47 422.8 208.83 411.57C205.55 408.66 202.33 404.37 198.08 402.9C193.65 401.38 188.15 403.02 183.52 402.39C177.85 401.62 162.79 400.5 161.41 393.94C158.13 378.38 188.64 389.71 195.55 388.39C187.46 386.24 164.55 368.85 164.15 360.17" fill="#2E2322"/>
<path d="M260.5 336.92C269.7 324.92 274.6 320.09 289.89 316.66C304.89 313.29 320.27 316.93 334.89 320.29C346.181 323.035 357.751 324.471 369.37 324.57C379.42 324.57 390.27 324.14 399.05 329.89C419.94 343.56 410.31 368.16 388.55 372.39C360.12 377.92 329.84 370.15 301.68 366.07C280.23 362.96 264.24 363.89 260.02 339.07" fill="#2E2322"/>
<path d="M193.67 341.91C202.93 350.06 210.6 359.52 218.89 368.5C225.35 375.5 238 385.89 239.63 395.5C231.19 387.36 223.06 379.42 214.52 371.34C209.11 366.23 200.77 355.14 193.85 353.52C194.11 362.75 207.98 375.01 213.35 382.58C217.67 388.66 228.53 398.85 230.02 405.87C216.9 401.44 208.7 386.68 199.77 377.04H199.04C208.34 388.613 217.987 399.876 227.98 410.83C233.52 416.94 244.39 432.72 254.38 430.42C264.57 428.08 264.55 412.1 262.12 404.52C257.93 391.52 245.48 381.27 236.84 371.14C229.54 362.57 222.55 350.82 212.1 345.7C212.1 350.15 216.77 352.5 216.1 357.22C210.42 353.22 204.88 347.94 199.74 343.61" fill="#5E1F11"/>
<path d="M289.29 321.92C302.29 321.92 314.89 324.53 327.99 324.53C336.18 324.53 352.18 321.81 358.93 325.4C353.84 329.02 347.35 329.4 341.4 329.74C334.24 330.14 326.63 332.02 319.84 331C325.54 337.83 342.61 331.32 349.15 338.94C334.81 339.02 319.15 339.43 304.43 338.44C295.82 337.87 279.75 336.83 272.91 332.44C276.81 325.14 295.04 332.05 298.91 326.67C294.437 326.213 290.037 325.206 285.81 323.67" fill="#5E1F11"/>
<path d="M11.0901 391.669C1.27006 403.819 4.34006 427.369 24.3401 429.909C47.3401 432.829 58.34 400.389 38.04 389.019C31.24 385.199 24.16 386.799 17.04 388.749" fill="#1F1711"/>
<path d="M260.4 424.87C250.58 437.02 253.19 458.79 273.2 461.33C296.2 464.25 314.11 426.96 293.85 415.59C287.04 411.77 279.96 413.37 272.85 415.32" fill="#1F1711"/>
<path d="M365.57 340.56C355.75 352.71 358.37 374.48 378.37 377.02C401.37 379.94 419.29 342.65 399.02 331.28C392.22 327.46 385.14 329.06 378.02 331.01" fill="#1F1711"/>
</svg>
