<svg width="673" height="509" viewBox="0 0 673 509" fill="none" xmlns="http://www.w3.org/2000/svg">
<path d="M204.218 280.85C187.238 288.25 171.668 298.5 156.208 308.7C140.718 318.91 125.238 329.13 109.748 339.34C101.508 344.78 93.0276 350.44 87.5876 358.68C82.1476 366.93 80.4975 378.51 86.3175 386.49C90.6375 392.41 98.0076 395.17 105.078 397.06C128.028 403.16 153.508 403.68 172.638 417.73C185.148 426.91 193.768 441.19 207.618 448.17C219.928 454.37 234.408 453.82 248.168 453.13C272.588 451.91 297.008 450.69 321.418 449.47C353.578 447.86 385.868 446.24 417.448 439.97C442.758 434.94 467.517 426.94 493.147 423.93C515.417 421.31 537.958 422.51 560.308 420.71C572.088 419.76 584.368 417.76 593.768 410.61C609.768 398.44 612.498 375.84 613.618 355.77C614.128 346.64 614.498 337.1 610.738 328.76C606.528 319.42 597.778 313.02 589.028 307.7C520.958 266.28 436.848 265.83 357.758 256.16C330.518 252.83 301.518 248.8 275.508 260.02C252.468 269.97 227.458 270.73 204.218 280.85Z" fill="#DDB376"/>
<path d="M272.248 242.91C276.398 236.7 282.518 232.08 288.838 228.1C300.918 220.5 315.818 214.71 329.288 219.44C339.798 223.13 347.418 232.56 357.728 236.79C370.588 242.06 385.648 238.48 398.728 243.16C408.758 246.75 417.028 255.65 418.678 266.17C420.328 276.7 414.598 288.27 404.738 292.33C398.868 294.75 392.288 294.49 385.948 294.19C347.008 292.35 308.067 290.51 269.127 288.68C267.727 288.61 266.288 288.54 265.038 287.92C260.878 285.86 261.458 279.67 263.548 275.52C268.938 264.79 265.538 252.94 272.248 242.91Z" fill="#959799"/>
<path d="M424.528 264.81C422.868 272.24 417.958 278.95 410.938 281.84C405.068 284.26 398.487 284 392.147 283.7C353.207 281.86 314.268 280.02 275.328 278.19C273.928 278.12 272.488 278.05 271.238 277.43C270.718 277.17 270.267 276.85 269.887 276.47C269.887 276.47 269.887 276.47 269.887 276.48C267.797 280.63 267.217 286.82 271.377 288.88C272.627 289.5 274.078 289.58 275.468 289.64C314.408 291.48 353.348 293.32 392.288 295.15C398.628 295.45 405.208 295.71 411.078 293.29C420.928 289.24 426.668 277.66 425.018 267.13C424.898 266.34 424.728 265.57 424.528 264.81Z" fill="#818384"/>
<path d="M510.768 308.16C523.858 307.06 538.057 303.29 545.457 292.43C551.107 284.14 551.508 272.82 547.298 263.71C543.078 254.61 534.647 247.78 525.137 244.59C514.467 241.01 502.927 241.78 491.677 241.62C479.537 241.45 467.418 240.16 455.518 237.76C448.438 236.34 441.248 234.51 434.098 235.46C422.318 237.01 412.908 245.65 404.328 253.87C386.278 271.16 370.287 304.71 407.697 303.57C442.127 302.51 476.378 311.05 510.768 308.16Z" fill="#959799"/>
<path d="M547.288 263.71C543.068 254.61 534.637 247.78 525.127 244.59C519.037 242.55 512.658 241.92 506.208 241.73C507.828 243.77 509.218 245.99 510.328 248.37C514.548 257.47 514.148 268.8 508.488 277.09C501.088 287.94 486.888 291.71 473.798 292.82C444.158 295.31 414.618 289.311 384.958 288.281C384.658 297.381 390.598 304.09 407.688 303.57C442.128 302.51 476.388 311.061 510.768 308.161C523.858 307.061 538.058 303.29 545.458 292.43C551.108 284.14 551.498 272.82 547.288 263.71Z" fill="#818384"/>
<path d="M544.398 331.89C550.808 333.15 557.628 333.76 563.068 337.38C569.918 341.95 573.118 350.34 578.928 356.19C587.848 365.17 601.608 367.01 614.268 366.93C621.928 366.88 629.748 366.27 636.798 363.29C643.858 360.31 650.108 354.61 652.098 347.21C653.368 342.51 652.858 337.53 652.038 332.74C649.468 317.7 643.908 303.18 635.778 290.26C632.388 284.87 628.458 279.67 623.288 275.97C613.168 268.72 599.878 268.16 587.438 267.87C574.758 267.57 561.558 267.37 550.038 272.68C528.088 282.78 511.378 325.39 544.398 331.89Z" fill="#959799"/>
<path d="M650.427 324.05C648.907 325.63 647.217 327.06 645.407 328.28C639.057 332.56 631.497 334.66 623.987 336.17C611.587 338.68 597.717 339.51 587.247 332.41C580.427 327.79 575.688 320.17 568.078 316.99C562.048 314.47 555.237 315.19 548.697 315.18C536.417 315.16 529.718 309.15 527.108 300.84C523.448 314.24 527.067 327.63 544.417 331.05C550.837 332.31 557.658 332.92 563.088 336.54C569.938 341.11 573.137 349.5 578.937 355.35C587.857 364.33 601.628 366.17 614.278 366.09C621.938 366.04 629.758 365.43 636.808 362.45C643.868 359.47 650.118 353.77 652.108 346.37C653.368 341.67 652.858 336.69 652.048 331.9C651.598 329.26 651.057 326.64 650.427 324.05Z" fill="#818384"/>
<path d="M193.678 232.62C208.798 223.02 229.588 222.51 244.478 232.47C251.248 237 256.838 243.49 264.438 246.39C274.568 250.26 287.498 247.49 295.288 255.03C302.118 261.64 301.247 272.64 299.877 282.05C298.987 288.16 297.908 294.67 293.718 299.21C285.648 307.96 271.558 304.76 259.788 303.02C243.788 300.65 227.488 302.34 211.438 304.37C201.468 305.63 190.988 306.96 181.648 303.26C151.578 291.35 175.268 244.32 193.678 232.62Z" fill="#959799"/>
<path d="M294.897 254.64C289.937 249.84 282.898 249.22 275.828 248.4C276.438 253.37 275.867 258.76 275.137 263.72C274.247 269.83 273.168 276.34 268.978 280.88C260.908 289.63 246.818 286.44 235.048 284.7C219.048 282.34 202.748 284.02 186.698 286.05C180.378 286.85 173.858 287.67 167.548 287.23C169.048 294.05 173.248 299.71 181.258 302.88C190.598 306.58 201.078 305.25 211.048 303.99C227.098 301.96 243.397 300.28 259.397 302.64C271.167 304.38 285.258 307.57 293.328 298.82C297.518 294.28 298.588 287.77 299.488 281.66C300.858 272.25 301.737 261.25 294.897 254.64Z" fill="#818384"/>
<path d="M60.7877 343.42C57.2277 336.65 56.5277 328.38 57.7877 320.67C59.4877 310.24 64.6976 300.52 72.1976 293.79C77.7176 288.83 84.3077 285.55 90.8077 282.32C110.588 272.5 130.758 262.55 152.308 259.78C160.148 258.78 168.298 258.78 175.688 261.78C195.208 269.7 203.078 294.69 208.548 316.68C210.338 323.9 212.128 331.64 209.928 338.74C206.138 350.94 192.878 355.56 181.408 358.48C163.888 362.94 146.238 367.42 128.278 368.23C108.598 369.12 71.9177 364.61 60.7877 343.42Z" fill="#959799"/>
<path d="M208.028 316.66C202.558 294.67 194.698 269.68 175.178 261.75C171.518 260.26 167.668 259.51 163.768 259.26C167.728 268.21 170.508 278.19 172.858 287.62C174.648 294.84 176.438 302.58 174.238 309.68C170.448 321.88 157.188 326.5 145.718 329.42C128.198 333.88 110.548 338.36 92.5775 339.17C83.2175 339.59 69.9976 338.78 57.5076 335.54C58.0876 338.29 58.9976 340.94 60.2876 343.4C71.4176 364.59 108.108 369.1 127.758 368.22C145.718 367.41 163.368 362.93 180.898 358.47C192.358 355.55 205.628 350.93 209.418 338.73C211.608 331.61 209.828 323.87 208.028 316.66Z" fill="#818384"/>
<path d="M509.078 371.99C509.578 367.04 511.148 361.95 514.778 358.55C517.728 355.78 521.717 354.41 525.657 353.48C532.707 351.82 540.038 351.32 547.258 352.02C554.148 352.69 560.918 354.44 567.838 354.69C576.308 355 584.808 353.02 592.458 349.36C598.408 346.52 603.837 342.69 609.697 339.66C615.557 336.63 622.077 334.37 628.637 335.02C635.337 335.69 641.398 339.33 646.588 343.61C659.328 354.12 668.257 369.16 671.387 385.37C673.467 396.12 672.837 407.97 666.627 417C661.057 425.1 651.788 429.84 642.498 433.07C620.098 440.85 595.867 441.57 572.187 440.43C564.127 440.04 555.927 439.41 548.427 436.44C542.557 434.11 537.318 430.42 532.528 426.3C528.418 422.77 524.548 418.83 521.978 414.06C518.558 407.72 520.108 400.27 516.208 394.28C511.478 387.01 508.158 381.07 509.078 371.99Z" fill="#C2C6CC"/>
<path d="M532.147 353.79C537.207 353.97 542.277 353.34 547.167 352.02C540.267 351.36 533.278 351.8 526.508 353.3C528.378 353.53 530.257 353.72 532.147 353.79Z" fill="#ABAEB2"/>
<path d="M671.368 385.38C668.238 369.16 659.308 354.13 646.568 343.62C641.378 339.34 635.318 335.7 628.618 335.03C622.058 334.38 615.527 336.64 609.677 339.67C609.137 339.95 608.608 340.24 608.078 340.53C609.038 341.23 609.987 341.96 610.897 342.72C623.637 353.23 632.568 368.27 635.698 384.48C637.778 395.23 637.148 407.08 630.938 416.11C625.367 424.21 616.098 428.96 606.808 432.18C592.708 437.08 577.877 439.17 562.927 439.77C565.997 440.11 569.097 440.29 572.177 440.44C595.857 441.58 620.088 440.86 642.488 433.08C651.778 429.86 661.048 425.11 666.618 417.01C672.808 407.98 673.438 396.13 671.368 385.38Z" fill="#ABAEB2"/>
<path d="M30.9276 417.53C26.3976 417.53 21.7676 417.52 17.4776 416.05C10.2676 413.57 4.8976 407.11 2.3776 399.91C-0.132401 392.71 -0.0924056 384.85 0.997594 377.3C2.62759 365.93 7.2976 354 17.2476 348.26C27.7076 342.24 40.8676 344.65 52.5976 341.81C62.8976 339.32 71.9676 332.8 82.4076 331.01C95.1676 328.82 108.358 334.19 118.088 342.73C127.818 351.27 134.558 362.67 140.328 374.26C143.578 380.79 146.578 388.54 143.458 395.14C140.888 400.56 134.948 403.41 129.358 405.6C96.0576 418.65 65.8876 417.51 30.9276 417.53Z" fill="#ABAEB2"/>
<path d="M0.877563 377.84C7.18756 381.33 16.5276 380.01 22.6676 377.98C30.7876 375.33 38.5176 371.04 47.0276 370.36C54.7276 369.74 62.3176 372.16 70.0176 372.86C78.2276 373.61 86.5476 372.38 94.4276 369.95C100.938 367.94 107.358 364.99 112.048 360.05C116.598 355.27 119.248 348.34 117.758 341.94C108.058 333.58 95.0276 328.35 82.4276 330.51C71.9876 332.3 62.9176 338.83 52.6176 341.31C40.8876 344.14 27.7276 341.73 17.2676 347.76C7.31758 353.49 2.64758 365.42 1.01758 376.8C0.967578 377.15 0.927563 377.49 0.877563 377.84Z" fill="#C2C6CC"/>
<path d="M379.718 388.56C392.448 386.72 405.548 389.65 418.208 387.42C439.088 383.74 455.508 366.74 476.158 361.92C495.458 357.42 516.288 364.56 531.248 377.56C546.208 390.57 555.828 408.8 561.758 427.72C564.958 437.93 567.158 449.08 563.728 459.22C559.328 472.25 546.328 480.82 532.938 483.98C519.548 487.14 505.578 485.85 491.848 485.01C461.838 483.16 431.678 483.49 401.718 486.02C387.848 487.19 373.558 488.78 360.288 484.6C312.468 469.51 338.028 394.58 379.718 388.56Z" fill="#C2C6CC"/>
<path d="M563.407 459.68C566.837 449.54 564.638 438.39 561.438 428.18C555.508 409.27 545.887 391.03 530.927 378.02C518.057 366.82 500.828 359.99 483.968 361.17C488.258 365.58 495.318 368.05 500.488 371.98C515.688 383.57 512.328 409.19 498.468 422.36C484.608 435.52 464.447 439.22 445.427 441.15C436.757 442.03 427.598 442.83 420.478 447.84C412.708 453.3 408.588 462.98 400.528 467.99C390.228 474.39 373.708 469.83 364.758 478.12C362.518 480.19 361.198 482.63 360.598 485.23C373.698 489.17 387.757 487.62 401.407 486.48C431.377 483.96 461.528 483.62 491.538 485.47C505.268 486.32 519.237 487.6 532.627 484.44C546.017 481.28 559.007 472.71 563.407 459.68Z" fill="#ABAEB2"/>
<path d="M561.448 427.71C556.448 411.78 548.818 396.34 537.598 384.09C543.958 393.81 548.728 404.67 552.218 415.78C555.418 425.99 557.618 437.14 554.188 447.28C549.778 460.31 536.787 468.88 523.397 472.04C510.007 475.2 496.038 473.91 482.308 473.07C452.288 471.22 422.137 471.55 392.177 474.08C384.187 474.75 376.058 475.55 368.058 475.32C366.878 475.96 365.768 476.73 364.758 477.66C362.518 479.73 361.198 482.17 360.598 484.77C373.698 488.71 387.757 487.17 401.407 486.02C431.377 483.5 461.528 483.16 491.538 485.01C505.268 485.86 519.237 487.14 532.627 483.98C546.017 480.82 559.007 472.25 563.417 459.22C566.847 449.07 564.648 437.92 561.448 427.71Z" fill="#959799"/>
<path d="M151.608 351.12C141.748 360 134.618 371.71 124.198 379.94C111.268 390.15 94.5476 394.02 79.9876 401.71C65.4176 409.4 51.8576 424.03 54.5476 440.29C55.7176 447.34 59.8576 453.62 64.9876 458.6C75.4976 468.83 89.8176 474.06 103.928 478.03C129.948 485.36 156.898 489.41 183.928 490.04C191.868 490.22 200.128 490.04 207.258 486.54C213.258 483.59 217.958 478.51 221.748 473.01C235.608 452.93 238.508 426.36 231.858 402.89C222.858 371.13 187.468 318.81 151.608 351.12Z" fill="#C2C6CC"/>
<path d="M231.848 402.89C226.458 383.88 211.618 357.51 192.878 346.32C194.558 350.33 195.938 354.23 196.958 357.86C203.608 381.33 200.708 407.9 186.848 427.98C183.048 433.48 178.358 438.56 172.358 441.51C165.228 445.01 156.968 445.19 149.028 445.01C121.998 444.38 95.0476 440.34 69.0276 433C64.4276 431.7 59.8076 430.27 55.2976 428.58C54.1976 432.33 53.8676 436.25 54.5276 440.28C55.6976 447.33 59.8375 453.61 64.9675 458.59C75.4775 468.82 89.7976 474.05 103.908 478.02C129.928 485.35 156.878 489.4 183.908 490.03C191.848 490.21 200.108 490.04 207.238 486.53C213.238 483.58 217.938 478.5 221.728 473C235.598 452.93 238.498 426.36 231.848 402.89Z" fill="#ABAEB2"/>
<path d="M230.637 401.42C226.507 386.83 216.798 367.91 204.038 354.85C210.928 365.35 216.098 376.9 218.838 386.56C225.488 410.03 222.588 436.6 208.728 456.68C204.928 462.18 200.228 467.26 194.238 470.21C187.108 473.71 178.848 473.89 170.908 473.71C143.878 473.08 116.928 469.04 90.9076 461.7C78.1976 458.12 65.3275 453.51 55.2175 445.16C57.1675 449.65 60.2276 453.7 63.7576 457.13C74.2676 467.36 88.5875 472.59 102.698 476.56C128.718 483.89 155.668 487.94 182.698 488.57C190.638 488.75 198.898 488.58 206.028 485.07C212.028 482.12 216.728 477.04 220.518 471.54C234.378 451.46 237.287 424.9 230.637 401.42Z" fill="#959799"/>
<path d="M264.658 396.38C249.998 397.54 237.958 407.95 227.068 417.84C218.578 425.55 210.088 433.26 201.608 440.97C192.138 449.57 181.948 459.68 181.738 472.47C181.498 486.84 194.708 498.49 208.658 501.94C222.608 505.39 237.228 502.76 251.498 501.02C274.368 498.23 297.818 497.8 320.198 503.27C334.138 506.68 350.108 512.01 361.778 503.66C372.418 496.05 373.588 479.87 367.918 468.07C362.258 456.27 351.538 447.84 341.178 439.85C320.298 423.71 293.908 394.12 264.658 396.38Z" fill="#C2C6CC"/>
<path d="M367.928 468.06C366.018 464.08 363.518 460.49 360.668 457.16C360.938 465.67 358.018 474.07 351.188 478.95C339.508 487.3 323.548 481.97 309.608 478.56C287.228 473.09 263.778 473.52 240.908 476.31C226.638 478.05 212.018 480.68 198.068 477.23C192.298 475.8 186.648 472.97 182.028 469.12C181.858 470.22 181.758 471.33 181.738 472.47C181.498 486.84 194.708 498.49 208.658 501.94C222.608 505.39 237.228 502.76 251.498 501.02C274.368 498.23 297.818 497.8 320.198 503.27C334.138 506.68 350.108 512.01 361.778 503.66C372.428 496.04 373.588 479.85 367.928 468.06Z" fill="#ABAEB2"/>
<path d="M237.707 425.99C231.247 432.72 221.778 435.77 214.908 442.07C212.028 444.71 209.547 449.01 211.587 452.34C212.297 453.51 213.467 454.33 214.707 454.92C219.957 457.43 226.258 456.14 231.568 453.75C238.318 450.71 244.298 445.98 248.798 440.1C252.598 435.15 255.408 429.35 260.098 425.23C266.998 419.18 277.198 417.76 286.038 420.24C288.008 420.79 290.288 421.48 291.968 420.31C293.498 419.24 293.778 416.96 293.048 415.25C289.348 406.58 269.618 402.09 261.038 403.26C249.278 404.86 244.887 418.51 237.707 425.99Z" fill="#E4E7ED"/>
<path d="M163.128 351.65C160.078 353.61 158.108 356.82 156.228 359.91C154.348 363 152.348 366.2 149.278 368.13C145.698 370.37 140.887 370.75 138.197 374C137.187 375.22 136.598 376.74 136.098 378.24C135.258 380.73 134.628 383.62 136.018 385.85C137.568 388.33 140.878 388.88 143.788 389.22C148.028 389.71 152.398 390.3 156.058 392.49C158.808 394.13 161.348 396.71 164.548 396.59C166.028 396.54 167.438 395.87 168.638 395C170.418 393.7 171.837 391.91 172.697 389.88C173.567 387.82 173.848 385.57 174.118 383.36C175.058 375.7 176.007 368.05 176.947 360.39C177.997 351.87 171.188 346.46 163.128 351.65Z" fill="#E4E7ED"/>
<path d="M74.9375 411.96C73.0975 413.95 71.2675 416.39 71.5975 419.08C71.9475 421.91 74.6675 423.94 77.4475 424.56C80.2275 425.19 83.1175 424.76 85.9675 424.62C91.6675 424.34 97.4276 425.27 102.758 427.33C108.928 429.71 114.648 433.61 121.218 434.4C124.428 434.78 128.088 434.18 130.018 431.59C130.758 430.6 131.168 429.39 131.398 428.18C132.148 424.32 131.108 420.16 128.648 417.1C126.148 413.99 122.438 412.15 118.848 410.4C113.468 407.79 108.028 405.15 102.178 403.94C93.0976 402.06 81.3575 405.03 74.9375 411.96Z" fill="#E4E7ED"/>
<path d="M538.928 374.69C543.188 375.91 547.708 374.79 552.088 374.11C559.418 372.97 566.948 373.08 574.248 374.44C578.808 375.29 583.338 376.63 587.978 376.48C596.148 376.21 603.928 370.839 607.078 363.299C607.948 361.229 608.458 358.76 607.368 356.79C605.468 353.36 600.368 353.81 596.748 355.33C588.128 358.95 580.508 365.97 571.158 366.15C561.038 366.35 551.588 356.93 541.608 358.54C532.728 359.99 528.388 371.67 538.928 374.69Z" fill="#E4E7ED"/>
<path d="M355.987 409.55C354.197 411.79 352.747 414.44 352.647 417.3C352.547 420.16 354.088 423.21 356.778 424.18C359.708 425.24 362.857 423.68 365.737 422.49C375.887 418.33 387.818 418.8 397.618 423.73C400.138 425 402.578 426.56 405.358 427.05C408.138 427.53 411.428 426.56 412.588 423.99C414.128 420.55 411.177 416.87 408.457 414.26C403.737 409.73 399.018 405.2 394.308 400.66C391.998 398.44 389.547 396.14 386.467 395.24C377.917 392.76 361.097 403.16 355.987 409.55Z" fill="#E4E7ED"/>
<path d="M457.728 378.93C458.358 380.4 459.757 381.37 461.137 382.17C465.597 384.76 470.958 386.69 473.408 391.23C474.748 393.7 474.998 396.6 475.608 399.34C476.228 402.09 477.417 404.96 479.887 406.32C482.337 407.67 485.718 407 487.468 404.81C488.888 403.03 489.178 400.62 489.348 398.35C489.548 395.59 489.647 392.82 489.637 390.05C489.627 387.34 489.508 384.59 488.608 382.04C487.618 379.23 485.728 376.81 483.578 374.73C479.498 370.78 473.528 368.31 467.778 368.87C463.448 369.3 455.288 373.27 457.728 378.93Z" fill="#E4E7ED"/>
<path d="M69.2575 308.56C68.0675 317.05 75.9575 325.6 84.5175 325.08C94.4475 324.48 101.628 314.13 111.528 313.19C118.818 312.5 125.797 317.13 133.097 316.6C139.647 316.13 145.377 311.39 148.357 305.54C151.337 299.69 151.917 292.88 151.467 286.32C151.297 283.9 150.878 281.25 149.038 279.66C147.058 277.96 144.148 278.07 141.548 278.3C122.998 279.98 72.9775 282.1 69.2575 308.56Z" fill="#ABAEB2"/>
<path d="M597.318 274.18C594.668 274.59 592.028 275.98 590.768 278.35C588.168 283.28 592.498 288.89 593.568 294.36C594.928 301.35 590.798 308.17 590.038 315.25C589.878 316.72 589.878 318.27 590.498 319.62C592.088 323.13 596.748 323.69 600.598 323.76C609.018 323.91 617.428 324.06 625.848 324.21C627.498 324.24 629.188 324.26 630.748 323.72C635.218 322.17 636.948 316.7 636.918 311.97C636.848 301.62 631.408 291.95 624.458 284.27C621.798 281.32 618.748 278.51 614.968 277.31C609.688 275.63 602.918 273.31 597.318 274.18Z" fill="#ABAEB2"/>
<path d="M401.717 264.5C400.147 266.24 398.547 268.05 397.727 270.25C396.907 272.45 397.047 275.17 398.687 276.85C399.977 278.17 401.927 278.61 403.767 278.78C411.327 279.47 418.977 276.54 424.757 271.62C428.367 268.55 431.298 264.77 434.808 261.59C443.038 254.15 454.487 250.4 465.527 251.52C467.277 251.7 469.077 251.98 470.757 251.46C472.427 250.93 473.918 249.27 473.548 247.56C473.138 245.65 470.877 244.86 468.977 244.42C457.277 241.72 442.357 235.87 430.967 240.4C419.087 245.11 410.047 255.23 401.717 264.5Z" fill="#ABAEB2"/>
<path d="M286.447 244.08C288.307 243.6 289.938 242.49 291.618 241.55C299.488 237.18 309.317 236.53 317.687 239.84C324.857 242.67 330.688 248.09 337.548 251.6C339.978 252.84 342.658 253.86 345.358 253.53C348.058 253.21 350.717 251.16 350.917 248.44C351.137 245.48 348.588 243.12 346.278 241.26C340.778 236.84 335.278 232.42 329.778 228C327.998 226.57 326.178 225.11 324.048 224.26C319.938 222.61 315.278 223.44 310.998 224.56C302.688 226.74 294.238 229.89 286.858 234.33C282.618 236.89 276.307 246.7 286.447 244.08Z" fill="#ABAEB2"/>
<path d="M279.018 366.59C315.558 352.26 356.418 351.03 392.238 334.98C400.478 331.29 408.398 326.83 416.898 323.8C434.928 317.38 454.558 317.68 473.688 318.05C475.348 318.08 477.038 318.12 478.628 318.6C484.478 320.35 486.998 327.07 488.708 332.94C472.908 326.02 454.478 328.63 438.248 334.46C422.018 340.28 406.988 349.11 390.718 354.84C359.688 365.76 325.338 364.99 294.758 377.1C289.258 379.28 283.868 381.89 279.228 385.56C277.818 386.67 276.448 387.9 274.758 388.52C273.628 388.94 272.418 389.05 271.218 389.17C265.178 389.75 259.038 390.71 252.968 390.91C245.138 391.16 245.668 388.47 250.718 383.51C258.618 375.75 268.818 370.59 279.018 366.59Z" fill="#7F4F39"/>
<path d="M341.637 343.39C364.277 348.82 387.418 355.95 404.808 371.44C406.748 373.17 408.817 375.1 411.417 375.33C414.007 375.57 416.877 372.93 415.757 370.58C415.427 369.89 414.837 369.38 414.257 368.89C396.077 353.49 374.147 342.99 351.457 335.71C328.767 328.43 305.217 324.25 281.707 320.37C270.197 318.47 258.627 316.64 246.957 316.5C244.257 316.47 241.308 316.62 239.288 318.41C236.698 320.7 236.818 325.28 239.528 327.47C241.908 329.39 244.338 328.21 247.098 328.22C257.498 328.24 268.177 330.15 278.467 331.55C299.707 334.46 320.797 338.39 341.637 343.39Z" fill="#7F4F39"/>
<path d="M431.487 335.67C455.707 336.4 480.237 338.59 502.917 347.12C505.247 348 507.997 350.65 506.217 352.41C505.497 353.12 504.368 353.14 503.358 353.08C500.238 352.88 497.168 352.29 494.098 351.71C480.878 349.2 467.628 346.87 454.338 344.71C442.828 342.84 431.258 341.1 419.598 340.83C407.498 340.55 395.427 341.86 383.417 343.32C345.677 347.89 308.077 353.95 271.137 362.91C266.077 364.14 260.578 365.39 255.808 363.3C255.098 362.99 254.387 362.58 253.937 361.95C248.887 354.73 274.827 350.55 277.417 349.98C289.747 347.29 302.148 344.97 314.618 343.02C339.338 339.15 364.288 336.75 389.298 335.83C403.358 335.3 417.427 335.25 431.487 335.67Z" fill="#7F4F39"/>
<path d="M361.208 385.85C364.138 385.15 367.118 384.03 369.108 381.77C372.318 378.13 372.088 372.72 371.878 367.87C371.118 350.43 372.928 332.87 377.228 315.95C374.688 314.69 371.498 315.99 369.618 318.12C367.738 320.25 366.838 323.03 365.768 325.66C358.468 343.72 342.208 357.59 337.478 376.48C334.158 389.8 352.808 387.86 361.208 385.85Z" fill="#7F4F39"/>
<path opacity="0.58" d="M279.457 273.1C280.617 247.29 292.327 223.3 299.197 198.39C306.067 173.48 307.117 144.04 290.027 124.66C311.597 148.25 320.007 183.16 311.537 213.98C304.647 239.06 287.338 263.1 292.608 288.57C294.218 296.36 299.727 304.29 299.927 311.73C283.877 315.04 278.977 283.82 279.457 273.1Z" fill="#B5E2E2"/>
<path opacity="0.58" d="M327.468 342.63C323.558 337.52 321.928 331.05 320.958 324.69C310.918 258.72 362.398 197.13 361.058 130.42C360.608 108.14 354.238 86.43 351.378 64.33C348.518 42.23 349.678 18.18 362.568 0C352.508 21.94 358.038 47.8 366.688 70.33C375.338 92.86 387.078 114.78 389.328 138.81C391.498 162.05 384.128 186.04 369.288 204.05C362.998 211.68 355.428 218.29 349.978 226.54C344.548 234.75 341.418 244.28 339.288 253.88C331.568 288.6 338.438 319.88 354.898 350.54C345.558 352.4 333.628 350.67 327.468 342.63Z" fill="#B5E2E2"/>
<path opacity="0.58" d="M376.348 255.33C379.238 219.53 410.878 190.7 412.838 154.84C413.938 134.76 405.488 115.52 401.788 95.7499C398.088 75.9799 400.978 52.0799 418.008 41.3799C405.588 59.0299 408.618 83.3398 416.368 103.47C424.118 123.61 436.048 142.29 440.518 163.4C445.238 185.68 440.958 209.74 428.848 229.03C419.808 243.43 406.448 255.66 402.068 272.09C398.358 286.01 401.777 300.89 407.217 314.23C410.127 321.37 420.807 344.37 408.897 349.85C400.557 353.69 401.028 337.26 399.118 331.23C390.938 305.39 374.028 283.96 376.348 255.33Z" fill="#B5E2E2"/>
<path opacity="0.58" d="M253.958 201.179C245.688 178.479 243.988 153.419 249.118 129.809C254.788 103.719 268.618 78.5595 265.718 52.0195C277.568 74.2595 271.958 101.329 266.528 125.939C261.098 150.549 256.617 178.15 270.137 199.42C272.817 203.63 276.197 207.589 277.377 212.439C282.897 235.309 257.198 210.079 253.958 201.179Z" fill="#B5E2E2"/>
<path opacity="0.58" d="M430.808 204.19C425.328 174.48 420.128 141.52 436.138 115.91C428.598 133.77 429.458 154.1 433.158 173.12C436.868 192.15 443.268 210.58 446.568 229.69C448.588 241.42 449.398 253.65 446.078 265.08C443.148 275.21 436.108 286.02 425.868 289.74C437.808 261.02 436.408 234.58 430.808 204.19Z" fill="#B5E2E2"/>
</svg>
