<svg width="635" height="446" viewBox="0 0 635 446" fill="none" xmlns="http://www.w3.org/2000/svg">
<path d="M44.1113 275.003C47.9413 271.883 52.8014 270.413 57.2214 268.213C65.2614 264.223 71.8013 257.843 78.3713 251.723C84.9313 245.603 91.8513 239.523 100.241 236.333C108.631 233.143 118.881 233.393 125.751 239.173C131.371 243.903 133.851 251.593 133.781 258.943C133.641 274.153 123.891 287.773 112.271 297.593C107.001 302.043 101.161 306.013 94.5614 308.023C89.7314 309.493 84.6314 309.873 79.5914 310.013C70.5514 310.263 54.8913 312.183 46.7913 306.873C35.9613 299.763 33.7013 283.483 44.1113 275.003Z" fill="#959799"/>
<path d="M509.121 237.633C513.331 240.603 519.211 239.323 523.801 236.983C528.401 234.653 532.651 231.353 537.711 230.393C546.151 228.793 554.481 234.213 559.821 240.943C565.161 247.673 568.501 255.773 573.531 262.733C576.571 266.943 580.211 270.693 583.121 274.993C591.241 286.963 593.031 303.013 587.651 316.453C582.271 329.883 569.851 340.283 555.671 343.133C541.481 345.983 525.971 341.153 515.981 330.683C504.721 318.903 501.101 301.703 500.821 285.413C500.651 275.513 501.561 265.493 504.801 256.133C508.271 246.093 515.961 236.063 526.561 235.473L509.121 237.633Z" fill="#959799"/>
<path d="M110.472 258.473C115.732 233.873 128.511 211.673 138.891 188.753C149.271 165.833 157.472 140.513 152.732 115.803C150.512 122.633 157.802 128.383 163.552 132.693C175.792 141.863 185.042 154.973 189.582 169.573C187.632 143.793 188.772 117.773 192.982 92.2632C214.412 110.343 235.361 129.423 251.511 152.343C267.661 175.263 278.822 202.513 278.562 230.553C282.672 179.313 286.952 127.283 305.152 79.2131C314.802 53.7231 328.552 27.5132 323.442 0.743164C339.252 17.3232 348.802 39.7232 349.812 62.6132C355.432 54.0932 359.002 44.2231 360.152 34.0831C363.612 50.9031 374.782 64.8832 383.782 79.5132C400.202 106.223 410.042 136.943 412.172 168.223C421.282 154.843 426.062 138.563 425.632 122.383C431.832 149.163 440.362 175.403 451.102 200.703C460.402 176.863 468.552 152.573 475.522 127.953C470.472 140.973 473.472 155.893 479.442 168.513C485.412 181.143 494.152 192.233 501.292 204.243C513.152 224.183 520.572 246.753 522.852 269.843C524.772 289.283 520.772 312.673 503.152 321.103C494.712 325.143 484.932 324.743 475.582 325.083C415.102 327.233 361.472 362.483 303.942 381.253C270.962 392.003 236.242 397.383 201.562 397.103C181.422 396.943 160.862 394.773 142.562 386.343C137.922 384.213 133.382 381.623 129.952 377.843C115.492 361.913 129.601 341.253 122.241 323.693C112.641 300.843 104.952 284.303 110.472 258.473Z" fill="#E8901A"/>
<path d="M137.431 270.913C138.921 256.503 145.031 243.053 150.511 229.643C155.991 216.233 160.991 202.093 160.061 187.643C166.941 210.233 187.341 230.363 182.501 253.483C185.401 243.623 188.302 233.773 191.202 223.913C194.022 228.623 196.841 233.343 199.661 238.053C208.241 214.873 213.122 190.323 214.072 165.623C232.122 183.613 250.771 202.563 258.671 226.793C263.421 241.353 263.951 256.933 267.551 271.823C271.151 286.703 278.901 301.893 292.801 308.303C294.021 308.863 295.431 309.353 296.671 308.833C298.081 308.243 298.672 306.603 299.092 305.133C310.832 263.903 302.601 219.293 312.171 177.503C311.611 183.673 315.831 189.963 321.771 191.763C325.441 162.783 327.341 133.573 327.441 104.363C343.241 121.623 358.542 139.603 369.852 160.093C381.162 180.583 388.332 203.883 386.832 227.233C390.352 217.703 393.861 208.163 397.381 198.633C399.131 208.543 400.881 218.463 402.641 228.373C408.121 221.803 412.171 214.053 414.431 205.803C443.341 226.303 457.231 265.793 447.531 299.873C467.591 281.493 473.521 252.283 474.191 225.083C475.571 230.283 476.962 235.483 478.342 240.683C480.992 239.853 482.582 236.583 481.582 233.983C487.072 258.593 492.222 285.863 479.822 307.813C473.412 319.163 462.931 327.673 451.811 334.473C431.071 347.143 407.601 354.643 384.031 360.553C351.841 368.623 318.871 373.953 285.691 374.643C266.691 375.033 247.321 373.833 229.491 367.243C214.661 361.753 201.441 352.743 188.391 343.803C162.531 326.093 133.701 306.933 137.431 270.913Z" fill="#E5CC35"/>
<path d="M158.811 252.644C160.501 259.744 163.611 266.494 167.901 272.394C170.371 268.184 171.621 263.264 171.461 258.384C176.411 262.574 174.081 272.124 179.631 275.484C184.531 278.444 190.381 273.744 194.151 269.444C202.131 260.334 210.201 251.094 215.601 240.254C221.001 229.414 223.511 216.614 219.811 205.074C236.041 232.894 244.661 265.104 244.511 297.304C244.491 301.894 244.361 306.764 246.711 310.714C250.191 316.554 257.741 318.284 264.481 319.164C277.841 320.904 291.681 321.424 304.561 317.464C317.441 313.504 329.311 304.414 333.821 291.714C341.961 268.764 324.461 244.364 325.761 220.044C327.851 224.704 332.501 228.114 337.581 228.684C338.621 210.294 339.651 191.904 340.691 173.514C357.921 215.044 370.551 258.484 378.251 302.784C392.131 284.344 404.201 264.554 414.231 243.774C413.801 245.364 414.921 247.204 416.531 247.544C417.481 244.984 418.421 242.414 419.371 239.854C419.291 256.704 428.171 274.844 419.831 289.484C417.021 294.414 412.551 298.174 407.931 301.484C381.711 320.274 349.211 327.404 318.111 335.924C289.971 343.644 261.501 352.924 232.361 351.344C205.841 349.904 182.601 337.724 166.541 316.644C152.731 298.504 154.181 274.144 158.811 252.644Z" fill="#F9F926"/>
<path d="M243.571 324.653C252.481 330.373 263.301 330.744 273.561 330.984C327.781 332.254 382.531 334.454 435.421 348.984C461.921 356.264 488.351 366.674 515.481 366.134C518.811 366.064 522.431 365.694 524.731 363.204C526.241 361.554 526.921 359.243 527.541 357.023C532.411 339.693 537.281 322.353 542.151 305.023C542.901 302.363 543.631 299.454 542.621 296.834C541.741 294.554 542.481 289.083 540.511 287.773C506.181 264.773 460.351 273.283 420.461 268.903C401.351 266.803 382.461 262.463 363.401 259.793C326.861 254.673 289.771 255.774 253.901 262.944C237.171 266.294 229.581 269.954 228.431 289.704C227.671 302.924 232.241 317.383 243.571 324.653Z" fill="#7F4F39"/>
<path d="M540.611 288.124C539.851 287.614 539.091 287.144 538.321 286.674C538.221 287.044 538.121 287.404 538.021 287.754C533.151 305.084 528.281 322.424 523.411 339.754C522.781 341.974 522.111 344.294 520.601 345.934C518.311 348.424 514.681 348.804 511.351 348.864C484.221 349.404 457.791 338.994 431.291 331.714C378.401 317.194 323.651 314.984 269.431 313.724C259.171 313.484 248.351 313.114 239.441 307.394C234.581 304.274 230.971 299.834 228.481 294.734C228.921 306.574 233.651 318.594 243.661 325.014C252.571 330.724 263.391 331.104 273.651 331.344C327.871 332.614 382.621 334.814 435.511 349.344C462.011 356.624 488.431 367.034 515.571 366.494C518.901 366.424 522.521 366.054 524.821 363.564C526.341 361.914 527.011 359.604 527.631 357.384C532.501 340.054 537.371 322.714 542.241 305.384C542.991 302.724 543.721 299.814 542.711 297.194C541.831 294.904 542.581 289.444 540.611 288.124Z" fill="#7F4F39"/>
<path d="M507.731 343.044C507.581 347.094 507.691 351.174 508.411 355.184C508.841 357.624 509.531 360.104 511.001 362.064C514.371 366.554 520.961 366.884 525.561 364.214C530.161 361.544 533.171 356.654 535.721 351.774C540.561 342.534 544.411 332.684 547.191 322.464C549.021 315.744 550.391 308.664 549.261 301.674C548.511 297.024 546.531 292.384 543.011 289.454C526.161 275.434 512.851 314.024 510.091 325.724C508.751 331.374 507.961 337.184 507.731 343.044Z" fill="#7F4F39"/>
<path d="M526.411 333.614C526.471 333.914 526.551 334.234 526.761 334.444C526.991 334.664 527.331 334.704 527.631 334.674C529.201 334.504 530.131 332.834 530.771 331.314C532.311 327.644 533.521 323.814 534.381 319.874C534.871 317.624 535.241 315.244 534.581 313.004C533.741 310.154 527.591 319.924 527.451 320.314C525.911 324.484 525.521 329.164 526.411 333.614Z" fill="#7F4F39"/>
<path d="M518.771 341.254C519.061 344.074 520.311 347.584 522.961 347.674C524.731 347.734 526.061 346.144 527.091 344.644C529.561 341.044 531.731 337.204 533.571 333.184C531.751 339.694 529.281 345.974 526.221 351.894C525.291 353.694 524.241 355.524 522.611 356.624C520.981 357.724 518.601 357.854 517.171 356.384C516.341 355.534 515.961 354.304 515.671 353.124C513.071 342.544 515.071 331.494 517.691 321.104C519.411 314.304 521.551 307.294 526.311 302.474C527.121 303.274 526.731 304.674 526.271 305.714C521.471 316.714 517.531 328.724 518.771 341.254Z" fill="#7F4F39"/>
<path d="M539.401 311.254C539.131 316.264 538.551 321.254 537.661 326.154C541.201 318.284 542.322 309.134 540.812 300.384C540.632 299.344 540.381 298.244 539.641 297.524C538.651 296.564 537.082 296.654 535.952 297.344C534.822 298.034 534.042 299.194 533.302 300.324C529.912 305.424 526.102 311.104 525.602 317.594C527.242 314.214 527.982 310.204 530.602 307.484C534.902 303.044 539.801 303.954 539.401 311.254Z" fill="#7F4F39"/>
<path d="M249.582 290.223C273.732 277.543 301.991 276.893 329.251 276.493C349.751 276.193 370.811 275.983 390.261 283.643C398.161 286.753 405.721 291.143 413.941 292.913C424.631 295.213 435.501 292.903 446.271 291.933C460.001 290.693 474.602 291.853 486.582 299.603C489.252 301.323 491.841 303.393 494.871 304.073C501.891 305.643 507.871 299.403 512.421 293.713C514.081 291.633 515.851 288.993 514.991 286.353C513.951 283.173 510.051 282.513 506.921 282.423C484.141 281.763 461.372 281.093 438.592 280.433C431.332 280.223 423.981 279.993 416.941 277.863C410.831 276.013 405.132 272.783 399.092 270.683C390.412 267.673 381.242 267.073 372.202 266.503C350.112 265.103 328.011 263.703 305.921 262.303C287.011 261.103 265.042 259.383 247.832 268.693C235.662 275.273 229.952 300.533 249.582 290.223Z" fill="#7F4F39"/>
<path d="M257.521 417.594C265.671 416.544 272.591 411.324 279.091 406.304C313.481 379.774 348.631 353.544 388.211 335.654C408.041 326.684 429.241 319.644 445.921 305.664C447.961 303.954 450.061 301.904 450.361 299.254C450.561 297.504 449.931 295.774 449.311 294.124C444.491 281.264 439.661 268.404 434.841 255.544C434.101 253.574 433.241 251.454 431.421 250.394C429.831 249.464 427.821 245.814 426.001 246.014C394.161 249.484 369.431 277.664 342.571 295.104C329.701 303.454 315.951 310.364 302.851 318.354C277.741 333.674 255.101 352.994 235.981 375.354C227.061 385.784 223.991 391.804 232.231 404.244C237.751 412.554 247.161 418.934 257.521 417.594Z" fill="#915B40"/>
<path d="M426.221 246.174C425.521 246.254 424.831 246.354 424.131 246.454C424.241 246.724 424.341 246.994 424.441 247.254C429.261 260.114 434.081 272.974 438.911 285.834C439.531 287.484 440.161 289.214 439.961 290.964C439.661 293.614 437.571 295.664 435.521 297.374C418.841 311.354 397.641 318.404 377.811 327.364C338.241 345.264 303.091 371.494 268.691 398.024C262.181 403.044 255.271 408.264 247.121 409.314C242.681 409.894 238.411 409.044 234.541 407.234C240.181 414.124 248.591 418.954 257.741 417.774C265.891 416.724 272.811 411.504 279.311 406.484C313.701 379.954 348.851 353.724 388.431 335.834C408.261 326.864 429.461 319.824 446.141 305.844C448.181 304.134 450.281 302.084 450.581 299.434C450.781 297.684 450.151 295.954 449.531 294.304C444.711 281.444 439.881 268.584 435.061 255.724C434.321 253.754 433.461 251.634 431.641 250.574C430.061 249.634 428.051 245.974 426.221 246.174Z" fill="#7F4F39"/>
<path d="M430.621 295.694C432.361 298.204 434.291 300.594 436.551 302.644C437.931 303.894 439.481 305.034 441.291 305.474C445.421 306.474 449.691 303.354 451.351 299.444C453.011 295.524 452.661 291.074 452.041 286.864C450.861 278.884 448.801 271.024 445.901 263.494C443.991 258.544 441.641 253.594 437.761 249.964C435.191 247.554 431.851 245.763 428.321 245.773C411.451 245.833 420.651 275.704 424.241 284.124C425.971 288.184 428.111 292.064 430.621 295.694Z" fill="#DDB376"/>
<path d="M438.001 280.633C438.171 280.783 438.371 280.933 438.601 280.953C438.841 280.973 439.071 280.823 439.251 280.653C440.151 279.763 439.981 278.283 439.691 277.053C438.991 274.073 438.001 271.163 436.751 268.373C436.041 266.783 435.191 265.163 433.761 264.153C431.941 262.863 432.541 271.823 432.631 272.133C433.551 275.403 435.421 278.413 438.001 280.633Z" fill="#BC9766"/>
<path d="M436.691 289.063C438.151 290.613 440.521 292.093 442.211 290.813C443.341 289.963 443.451 288.333 443.411 286.913C443.321 283.513 442.931 280.113 442.251 276.773C444.071 281.593 445.381 286.613 446.151 291.703C446.381 293.253 446.561 294.873 446.041 296.353C445.521 297.833 444.091 299.113 442.541 298.943C441.631 298.853 440.841 298.303 440.131 297.743C433.711 292.703 429.951 285.063 426.871 277.503C424.861 272.553 423.021 267.263 423.801 261.983C424.671 262.053 425.061 263.093 425.251 263.953C427.251 272.973 430.241 282.163 436.691 289.063Z" fill="#BC9766"/>
<path d="M435.961 260.673C438.061 263.823 439.961 267.103 441.631 270.493C440.271 263.983 436.821 257.923 431.911 253.433C431.331 252.903 430.671 252.363 429.881 252.303C428.831 252.223 427.881 253.073 427.501 254.053C427.111 255.033 427.151 256.123 427.201 257.173C427.401 261.943 427.601 267.263 430.231 271.423C429.721 268.573 428.361 265.783 428.771 262.833C429.431 258.013 432.901 256.093 435.961 260.673Z" fill="#BC9766"/>
<path d="M245.661 393.903C254.971 374.133 272.311 359.523 289.121 345.563C301.771 335.063 314.811 324.343 330.411 319.153C336.751 317.043 343.451 315.873 349.381 312.803C357.091 308.803 362.831 301.953 369.101 295.943C377.101 288.293 386.741 281.633 397.721 280.263C400.161 279.953 402.721 279.893 404.921 278.773C410.011 276.183 410.911 269.423 411.161 263.723C411.251 261.633 411.161 259.163 409.421 258.013C407.331 256.623 404.601 258.193 402.601 259.713C388.091 270.783 373.591 281.843 359.081 292.903C354.461 296.433 349.771 299.993 344.421 302.253C339.771 304.213 334.751 305.143 330.031 306.933C323.251 309.493 317.261 313.753 311.361 317.963C296.941 328.243 282.531 338.523 268.121 348.803C255.781 357.603 241.301 367.623 234.791 381.873C230.201 391.923 238.091 409.973 245.661 393.903Z" fill="#AA694D"/>
<path d="M107.221 361.473C115.091 365.113 122.881 363.923 130.231 362.693C169.101 356.183 208.601 350.403 250.101 355.433C270.891 357.953 292.471 363.163 311.611 358.903C313.961 358.383 316.431 357.553 317.391 355.103C318.021 353.483 317.881 351.403 317.721 349.413C316.521 333.893 315.311 318.373 314.111 302.843C313.931 300.463 313.661 297.863 312.241 295.763C311.001 293.933 310.061 289.153 308.301 288.303C277.711 273.423 247.441 287.133 217.911 288.963C203.771 289.843 189.171 288.773 174.911 289.163C147.571 289.903 121.501 296.033 97.9513 307.193C86.9613 312.403 82.5613 316.603 87.0513 333.673C90.0713 345.103 97.2113 356.843 107.221 361.473Z" fill="#915B40"/>
<path d="M308.471 288.604C307.801 288.274 307.131 287.984 306.451 287.684C306.481 288.014 306.511 288.334 306.531 288.654C307.731 304.174 308.941 319.694 310.141 335.224C310.291 337.214 310.441 339.294 309.811 340.914C308.851 343.364 306.371 344.194 304.031 344.724C284.891 348.984 263.311 343.774 242.521 341.254C201.031 336.234 161.521 342.004 122.651 348.514C115.291 349.744 107.511 350.944 99.6411 347.294C95.3511 345.304 91.5812 342.014 88.4512 337.994C91.9512 348.074 98.5511 357.704 107.381 361.794C115.251 365.434 123.041 364.244 130.391 363.014C169.261 356.504 208.761 350.724 250.261 355.754C271.051 358.274 292.631 363.484 311.771 359.224C314.111 358.704 316.591 357.874 317.551 355.414C318.181 353.794 318.041 351.714 317.891 349.724C316.691 334.204 315.481 318.684 314.281 303.154C314.101 300.774 313.831 298.174 312.411 296.074C311.171 294.234 310.231 289.454 308.471 288.604Z" fill="#7F4F39"/>
<path d="M299.891 340.223C300.871 343.713 302.051 347.193 303.641 350.523C304.611 352.553 305.761 354.583 307.341 356.053C310.941 359.423 315.721 358.783 318.271 355.853C320.821 352.923 321.641 348.313 322.141 343.783C323.091 335.193 323.181 326.223 322.401 317.083C321.891 311.073 320.961 304.823 318.281 298.993C316.501 295.123 313.841 291.423 310.551 289.403C294.811 279.763 295.731 314.663 296.911 325.073C297.471 330.093 298.471 335.173 299.891 340.223Z" fill="#DDB376"/>
<path d="M310.631 329.543C310.751 329.793 310.891 330.053 311.101 330.203C311.321 330.363 311.571 330.353 311.781 330.283C312.851 329.923 313.061 328.353 313.111 326.963C313.221 323.603 313.051 320.153 312.601 316.663C312.341 314.673 311.971 312.574 310.901 310.754C309.531 308.424 307.801 317.654 307.801 318.014C307.811 321.794 308.791 325.853 310.631 329.543Z" fill="#BC9766"/>
<path d="M307.251 337.143C308.211 339.513 310.051 342.353 311.951 342.053C313.221 341.853 313.741 340.303 314.071 338.883C314.861 335.453 315.361 331.863 315.591 328.173C316.051 334.003 315.991 339.723 315.401 345.223C315.221 346.893 314.971 348.603 314.111 349.773C313.251 350.943 311.591 351.383 310.181 350.333C309.361 349.713 308.761 348.723 308.241 347.753C303.551 339.063 301.991 329.323 301.061 320.063C300.451 314.003 300.091 307.693 302.171 302.903C302.961 303.473 303.061 304.733 303.021 305.683C302.571 315.763 303.001 326.593 307.251 337.143Z" fill="#BC9766"/>
<path d="M313.841 308.573C315.001 312.903 315.921 317.253 316.611 321.573C317.011 314.333 315.341 306.343 311.911 299.073C311.501 298.213 311.031 297.303 310.311 296.793C309.351 296.113 308.251 296.403 307.641 297.153C307.031 297.903 306.781 299.003 306.561 300.073C305.521 304.913 304.341 310.303 305.731 315.943C305.981 312.813 305.431 309.283 306.561 306.593C308.431 302.173 312.161 302.273 313.841 308.573Z" fill="#BC9766"/>
<path d="M102.221 331.163C115.971 316.923 135.881 312.413 155.141 308.243C169.631 305.113 184.541 301.983 200.421 305.823C206.871 307.383 213.421 310.073 219.741 310.443C227.951 310.913 235.061 307.423 242.451 305.073C251.871 302.093 262.561 301.033 273.161 305.993C275.521 307.093 277.921 308.503 280.251 308.663C285.661 309.023 288.231 302.843 289.931 297.333C290.551 295.323 291.101 292.813 289.771 290.673C288.181 288.093 285.231 288.073 282.971 288.433C266.611 291.053 250.241 293.683 233.881 296.303C228.671 297.133 223.381 297.973 217.811 297.133C212.971 296.403 208.051 294.433 203.191 293.493C196.211 292.133 189.541 292.903 182.951 293.683C166.871 295.583 150.801 297.473 134.721 299.373C120.961 300.993 104.881 302.593 95.1614 312.983C88.3114 320.313 91.0414 342.743 102.221 331.163Z" fill="#AA694D"/>
<path d="M479.961 313.574C480.311 308.894 481.671 304.064 485.011 300.764C487.731 298.084 491.461 296.694 495.151 295.724C501.761 293.984 508.661 293.344 515.481 293.834C521.991 294.304 528.421 295.784 534.951 295.864C542.951 295.954 550.911 293.884 558.041 290.254C563.581 287.434 568.611 283.694 574.061 280.694C579.511 277.694 585.611 275.404 591.811 275.864C598.141 276.334 603.941 279.624 608.941 283.534C621.211 293.144 629.981 307.114 633.321 322.334C635.531 332.424 635.221 343.614 629.591 352.274C624.531 360.044 615.901 364.744 607.221 368.004C586.281 375.874 563.451 377.134 541.091 376.624C533.481 376.454 525.731 376.054 518.591 373.424C513.001 371.364 507.971 368.004 503.361 364.234C499.401 361.004 495.651 357.374 493.121 352.944C489.741 347.044 491.021 339.984 487.211 334.424C482.591 327.684 479.321 322.154 479.961 313.574Z" fill="#C2C6CC"/>
<path d="M501.291 295.853C506.071 295.903 510.831 295.183 515.411 293.823C508.891 293.363 502.301 293.943 495.961 295.523C497.731 295.703 499.511 295.833 501.291 295.853Z" fill="#ABAEB2"/>
<path d="M633.341 322.323C630.001 307.103 621.221 293.133 608.961 283.523C603.961 279.603 598.161 276.323 591.831 275.853C585.631 275.393 579.531 277.683 574.081 280.683C573.581 280.963 573.091 281.243 572.591 281.533C573.521 282.173 574.421 282.843 575.301 283.523C587.571 293.133 596.341 307.103 599.681 322.323C601.891 332.413 601.581 343.603 595.951 352.263C590.891 360.033 582.261 364.733 573.581 367.993C560.401 372.943 546.471 375.283 532.371 376.203C535.271 376.443 538.201 376.543 541.111 376.613C563.471 377.123 586.301 375.863 607.241 367.993C615.921 364.733 624.551 360.033 629.611 352.263C635.241 343.603 635.551 332.413 633.341 322.323Z" fill="#ABAEB2"/>
<path d="M30.1113 367.943C25.8413 368.053 21.4713 368.153 17.3913 366.863C10.5313 364.693 5.31133 358.733 2.77133 352.003C0.231328 345.273 0.0813522 337.853 0.921352 330.713C2.19135 319.953 6.30136 308.583 15.5514 302.943C25.2714 297.013 37.7414 298.973 48.7314 296.013C58.3814 293.423 66.7814 287.053 76.5814 285.113C88.5614 282.743 101.131 287.493 110.511 295.313C119.891 303.133 126.521 313.723 132.231 324.513C135.451 330.593 138.471 337.833 135.681 344.123C133.381 349.293 127.851 352.123 122.631 354.323C91.5713 367.433 63.0813 367.083 30.1113 367.943Z" fill="#ABAEB2"/>
<path d="M0.831543 331.213C6.87154 334.353 15.6415 332.883 21.3815 330.833C28.9715 328.143 36.1615 323.913 44.1715 323.063C51.4215 322.303 58.6415 324.393 65.9115 324.873C73.6715 325.383 81.4915 324.033 88.8615 321.543C94.9515 319.493 100.931 316.553 105.241 311.793C109.411 307.173 111.752 300.573 110.202 294.573C100.852 286.923 88.4416 282.303 76.6016 284.643C66.8016 286.583 58.4015 292.953 48.7515 295.543C37.7615 298.493 25.2815 296.533 15.5715 302.473C6.32153 308.123 2.21153 319.483 0.941528 330.243C0.901528 330.563 0.861543 330.893 0.831543 331.213Z" fill="#C2C6CC"/>
<path d="M358.371 332.293C370.331 330.253 382.761 332.703 394.651 330.303C414.251 326.333 429.342 309.903 448.702 304.873C466.802 300.163 486.611 306.403 501.031 318.313C515.451 330.223 524.951 347.193 531.001 364.883C534.261 374.433 536.601 384.903 533.611 394.543C529.771 406.933 517.711 415.323 505.161 418.623C492.611 421.923 479.402 421.043 466.432 420.573C438.082 419.543 409.652 420.583 381.452 423.673C368.402 425.103 354.962 426.943 342.342 423.323C296.872 410.243 319.191 338.963 358.371 332.293Z" fill="#C2C6CC"/>
<path d="M533.301 394.973C536.291 385.333 533.951 374.863 530.691 365.313C524.641 347.623 515.141 330.653 500.721 318.743C488.311 308.493 471.901 302.453 456.031 303.973C460.191 308.033 466.901 310.183 471.871 313.773C486.481 324.343 483.921 348.583 471.171 361.333C458.411 374.083 439.491 378.043 421.601 380.313C413.441 381.353 404.831 382.323 398.221 387.223C391.031 392.563 387.371 401.783 379.881 406.703C370.321 412.993 354.621 409.073 346.391 417.103C344.331 419.113 343.141 421.443 342.631 423.903C355.071 427.313 368.301 425.513 381.151 424.103C409.351 421.013 437.781 419.973 466.131 421.003C479.101 421.473 492.311 422.353 504.861 419.053C517.411 415.753 529.461 407.363 533.301 394.973Z" fill="#ABAEB2"/>
<path d="M142.341 302.423C133.251 311.043 126.811 322.253 117.181 330.253C105.231 340.183 89.5614 344.243 76.0014 351.843C62.4414 359.443 50.0014 373.563 52.9314 388.833C54.2014 395.453 58.2614 401.273 63.2114 405.853C73.3614 415.243 86.9914 419.833 100.401 423.253C125.121 429.553 150.631 432.723 176.131 432.663C183.621 432.643 191.411 432.283 198.051 428.813C203.641 425.893 207.951 420.983 211.391 415.703C223.981 396.433 226.081 371.313 219.251 349.333C210.011 319.593 175.391 271.103 142.341 302.423Z" fill="#C2C6CC"/>
<path d="M219.261 349.333C213.731 331.533 199.101 307.013 181.161 296.913C182.841 300.653 184.231 304.303 185.291 307.703C192.121 329.683 190.021 354.803 177.431 374.073C173.981 379.353 169.671 384.253 164.081 387.183C157.441 390.653 149.661 391.023 142.161 391.043C116.651 391.093 91.1414 387.923 66.4214 381.633C62.0514 380.523 57.6614 379.273 53.3714 377.783C52.4214 381.343 52.2014 385.053 52.9314 388.843C54.2014 395.463 58.2615 401.283 63.2115 405.863C73.3715 415.253 86.9914 419.843 100.401 423.263C125.121 429.563 150.631 432.733 176.131 432.673C183.621 432.653 191.411 432.293 198.051 428.823C203.641 425.903 207.951 420.993 211.391 415.713C223.981 396.433 226.091 371.313 219.261 349.333Z" fill="#ABAEB2"/>
<path d="M250.041 342.413C236.241 343.863 225.141 353.963 215.111 363.543C207.291 371.013 199.471 378.493 191.651 385.963C182.931 394.293 173.561 404.073 173.661 416.143C173.781 429.703 186.511 440.373 199.751 443.293C212.991 446.213 226.721 443.383 240.131 441.403C261.631 438.223 283.742 437.263 304.982 441.893C318.212 444.773 333.391 449.413 344.211 441.263C354.071 433.833 354.781 418.543 349.161 407.553C343.541 396.563 333.231 388.863 323.271 381.573C303.161 366.853 277.571 339.583 250.041 342.413Z" fill="#C2C6CC"/>
<path d="M349.141 407.544C347.241 403.834 344.801 400.504 342.031 397.434C342.491 405.454 339.931 413.444 333.611 418.204C322.801 426.354 307.611 421.714 294.381 418.834C273.141 414.214 251.031 415.174 229.531 418.344C216.121 420.324 202.391 423.154 189.151 420.234C183.671 419.024 178.281 416.484 173.831 412.964C173.701 414.004 173.631 415.054 173.641 416.134C173.761 429.694 186.491 440.364 199.731 443.284C212.971 446.204 226.701 443.374 240.111 441.394C261.611 438.214 283.721 437.254 304.961 441.884C318.191 444.764 333.371 449.404 344.191 441.254C354.051 433.824 354.761 418.534 349.141 407.544Z" fill="#ABAEB2"/>
<path d="M225.331 370.973C219.401 377.473 210.541 380.573 204.211 386.683C201.551 389.243 199.321 393.353 201.321 396.453C202.021 397.533 203.141 398.283 204.321 398.813C209.331 401.063 215.241 399.683 220.191 397.313C226.491 394.283 232.011 389.683 236.121 384.033C239.581 379.273 242.101 373.733 246.421 369.743C252.781 363.863 262.371 362.293 270.761 364.413C272.631 364.883 274.801 365.483 276.351 364.333C277.771 363.293 277.981 361.133 277.251 359.533C273.561 351.443 254.841 347.683 246.771 348.993C235.741 350.773 231.921 363.753 225.331 370.973Z" fill="#E4E7ED"/>
<path d="M153.211 302.643C150.381 304.563 148.601 307.633 146.901 310.603C145.201 313.563 143.391 316.633 140.541 318.523C137.221 320.723 132.691 321.193 130.231 324.323C129.311 325.503 128.791 326.943 128.351 328.373C127.621 330.743 127.101 333.483 128.461 335.553C129.981 337.863 133.121 338.303 135.871 338.543C139.881 338.903 144.011 339.353 147.521 341.333C150.151 342.813 152.611 345.183 155.631 345.003C157.031 344.913 158.341 344.253 159.451 343.403C161.101 342.133 162.401 340.413 163.151 338.473C163.921 336.513 164.131 334.383 164.331 332.283C165.041 325.043 165.751 317.793 166.451 310.553C167.251 302.493 160.701 297.563 153.211 302.643Z" fill="#E4E7ED"/>
<path d="M71.4913 361.634C69.8013 363.554 68.1314 365.894 68.5114 368.424C68.9114 371.084 71.5214 372.934 74.1614 373.454C76.8014 373.974 79.5114 373.504 82.1914 373.304C87.5614 372.904 93.0214 373.644 98.0914 375.454C103.971 377.554 109.451 381.094 115.671 381.684C118.701 381.974 122.151 381.314 123.901 378.824C124.571 377.874 124.931 376.724 125.121 375.574C125.731 371.924 124.661 368.024 122.261 365.194C119.831 362.314 116.281 360.674 112.851 359.114C107.721 356.774 102.521 354.414 96.9714 353.414C88.3714 351.864 77.3713 354.944 71.4913 361.634Z" fill="#E4E7ED"/>
<path d="M508.191 315.413C512.231 316.463 516.471 315.293 520.581 314.553C527.471 313.303 534.571 313.223 541.491 314.343C545.811 315.043 550.121 316.193 554.481 315.943C562.181 315.493 569.391 310.243 572.181 303.063C572.951 301.083 573.371 298.753 572.301 296.923C570.421 293.733 565.631 294.283 562.251 295.803C554.201 299.423 547.191 306.223 538.371 306.623C528.831 307.053 519.701 298.393 510.321 300.153C501.991 301.693 498.171 312.813 508.191 315.413Z" fill="#E4E7ED"/>
<path d="M336.491 352.653C334.861 354.803 333.551 357.343 333.521 360.043C333.491 362.743 335.021 365.583 337.581 366.433C340.371 367.363 343.301 365.813 345.991 364.633C355.461 360.473 366.731 360.623 376.081 365.043C378.481 366.173 380.831 367.593 383.461 367.983C386.091 368.373 389.171 367.383 390.201 364.933C391.571 361.653 388.701 358.253 386.071 355.853C381.511 351.693 376.951 347.533 372.401 343.373C370.161 341.333 367.811 339.223 364.881 338.443C356.771 336.283 341.151 346.503 336.491 352.653Z" fill="#E4E7ED"/>
<path d="M431.701 321.343C432.331 322.713 433.671 323.593 434.991 324.323C439.261 326.663 444.361 328.343 446.781 332.573C448.101 334.873 448.401 337.593 449.051 340.173C449.701 342.743 450.891 345.433 453.251 346.653C455.591 347.863 458.771 347.153 460.361 345.043C461.661 343.333 461.881 341.053 461.981 338.903C462.101 336.293 462.131 333.683 462.051 331.073C461.981 328.523 461.791 325.923 460.881 323.543C459.881 320.913 458.041 318.683 455.961 316.773C452.011 313.143 446.331 310.953 440.921 311.623C436.871 312.123 429.271 316.063 431.701 321.343Z" fill="#E4E7ED"/>
</svg>
