<svg width="865" height="279" viewBox="0 0 865 279" fill="none" xmlns="http://www.w3.org/2000/svg">
<path d="M29.965 63.395C31.0917 63.395 32.0233 63.7633 32.76 64.5C33.54 65.1933 33.93 66.1033 33.93 67.23C33.93 68.3133 33.54 69.2233 32.76 69.96C32.0233 70.6533 31.0917 71 29.965 71H8.84C7.71333 71 6.76 70.6317 5.98 69.895C5.24333 69.115 4.875 68.1617 4.875 67.035V29.465C4.875 28.3383 5.265 27.4067 6.045 26.67C6.825 25.89 7.82167 25.5 9.035 25.5C10.075 25.5 10.985 25.89 11.765 26.67C12.5883 27.4067 13 28.3383 13 29.465V64.5L11.57 63.395H29.965ZM56.779 71.65C53.0957 71.65 49.889 70.8917 47.159 69.375C44.4724 67.815 42.3924 65.7133 40.919 63.07C39.489 60.4267 38.774 57.4367 38.774 54.1C38.774 50.2 39.554 46.885 41.114 44.155C42.7174 41.3817 44.7974 39.2583 47.354 37.785C49.9107 36.3117 52.619 35.575 55.479 35.575C57.689 35.575 59.769 36.03 61.719 36.94C63.7124 37.85 65.4674 39.1067 66.984 40.71C68.5007 42.27 69.6924 44.09 70.559 46.17C71.469 48.25 71.924 50.46 71.924 52.8C71.8807 53.84 71.469 54.685 70.689 55.335C69.909 55.985 68.999 56.31 67.959 56.31H43.129L41.179 49.81H65.034L63.604 51.11V49.355C63.5174 48.0983 63.0624 46.9717 62.239 45.975C61.459 44.9783 60.4624 44.1983 59.249 43.635C58.079 43.0283 56.8224 42.725 55.479 42.725C54.179 42.725 52.9657 42.8983 51.839 43.245C50.7124 43.5917 49.7374 44.1767 48.914 45C48.0907 45.8233 47.4407 46.9283 46.964 48.315C46.4874 49.7017 46.249 51.4567 46.249 53.58C46.249 55.92 46.7257 57.9133 47.679 59.56C48.6757 61.1633 49.9324 62.3983 51.449 63.265C53.009 64.0883 54.6557 64.5 56.389 64.5C57.9924 64.5 59.2707 64.37 60.224 64.11C61.1774 63.85 61.9357 63.5467 62.499 63.2C63.1057 62.81 63.6474 62.485 64.124 62.225C64.904 61.835 65.6407 61.64 66.334 61.64C67.2874 61.64 68.0674 61.965 68.674 62.615C69.324 63.265 69.649 64.0233 69.649 64.89C69.649 66.06 69.0424 67.1217 67.829 68.075C66.7024 69.0283 65.1207 69.8733 63.084 70.61C61.0474 71.3033 58.9457 71.65 56.779 71.65ZM106.828 35.575C107.955 35.575 108.886 35.9433 109.623 36.68C110.36 37.4167 110.728 38.37 110.728 39.54V67.035C110.728 68.1617 110.36 69.115 109.623 69.895C108.886 70.6317 107.955 71 106.828 71C105.701 71 104.77 70.6317 104.033 69.895C103.296 69.115 102.928 68.1617 102.928 67.035V63.85L104.358 64.435C104.358 64.9983 104.055 65.6917 103.448 66.515C102.841 67.295 102.018 68.075 100.978 68.855C99.938 69.635 98.703 70.3067 97.273 70.87C95.8863 71.39 94.3697 71.65 92.723 71.65C89.733 71.65 87.0247 70.8917 84.598 69.375C82.1713 67.815 80.243 65.6917 78.813 63.005C77.4263 60.275 76.733 57.155 76.733 53.645C76.733 50.0917 77.4263 46.9717 78.813 44.285C80.243 41.555 82.1497 39.4317 84.533 37.915C86.9163 36.355 89.5597 35.575 92.463 35.575C94.3263 35.575 96.038 35.8567 97.598 36.42C99.158 36.9833 100.501 37.6983 101.628 38.565C102.798 39.4317 103.686 40.32 104.293 41.23C104.943 42.0967 105.268 42.8333 105.268 43.44L102.928 44.285V39.54C102.928 38.4133 103.296 37.4817 104.033 36.745C104.77 35.965 105.701 35.575 106.828 35.575ZM93.698 64.5C95.6047 64.5 97.273 64.0233 98.703 63.07C100.133 62.1167 101.238 60.8167 102.018 59.17C102.841 57.5233 103.253 55.6817 103.253 53.645C103.253 51.565 102.841 49.7017 102.018 48.055C101.238 46.4083 100.133 45.1083 98.703 44.155C97.273 43.2017 95.6047 42.725 93.698 42.725C91.8347 42.725 90.188 43.2017 88.758 44.155C87.328 45.1083 86.2013 46.4083 85.378 48.055C84.598 49.7017 84.208 51.565 84.208 53.645C84.208 55.6817 84.598 57.5233 85.378 59.17C86.2013 60.8167 87.328 62.1167 88.758 63.07C90.188 64.0233 91.8347 64.5 93.698 64.5ZM8.84 118.5H30.615C31.7417 118.5 32.6733 118.868 33.41 119.605C34.19 120.298 34.58 121.208 34.58 122.335C34.58 123.418 34.19 124.307 33.41 125C32.6733 125.65 31.7417 125.975 30.615 125.975H12.415L13 124.87V137.545L12.48 137.025H27.69C28.8167 137.025 29.7483 137.393 30.485 138.13C31.265 138.823 31.655 139.733 31.655 140.86C31.655 141.943 31.265 142.832 30.485 143.525C29.7483 144.175 28.8167 144.5 27.69 144.5H12.675L13 143.98V157.11L12.48 156.525H30.615C31.7417 156.525 32.6733 156.915 33.41 157.695C34.19 158.432 34.58 159.298 34.58 160.295C34.58 161.378 34.19 162.267 33.41 162.96C32.6733 163.653 31.7417 164 30.615 164H8.84C7.71333 164 6.76 163.632 5.98 162.895C5.24333 162.115 4.875 161.162 4.875 160.035V122.465C4.875 121.338 5.24333 120.407 5.98 119.67C6.76 118.89 7.71333 118.5 8.84 118.5ZM49.8723 160.035C49.8723 161.162 49.4823 162.115 48.7023 162.895C47.9656 163.632 47.0339 164 45.9073 164C44.8239 164 43.9139 163.632 43.1773 162.895C42.4406 162.115 42.0723 161.162 42.0723 160.035V119.865C42.0723 118.738 42.4406 117.807 43.1773 117.07C43.9573 116.29 44.9106 115.9 46.0373 115.9C47.1639 115.9 48.0739 116.29 48.7673 117.07C49.5039 117.807 49.8723 118.738 49.8723 119.865V160.035ZM74.362 164.65C70.6787 164.65 67.472 163.892 64.742 162.375C62.0554 160.815 59.9754 158.713 58.502 156.07C57.072 153.427 56.357 150.437 56.357 147.1C56.357 143.2 57.137 139.885 58.697 137.155C60.3004 134.382 62.3804 132.258 64.937 130.785C67.4937 129.312 70.202 128.575 73.062 128.575C75.272 128.575 77.352 129.03 79.302 129.94C81.2954 130.85 83.0504 132.107 84.567 133.71C86.0837 135.27 87.2754 137.09 88.142 139.17C89.052 141.25 89.507 143.46 89.507 145.8C89.4637 146.84 89.052 147.685 88.272 148.335C87.492 148.985 86.582 149.31 85.542 149.31H60.712L58.762 142.81H82.617L81.187 144.11V142.355C81.1004 141.098 80.6454 139.972 79.822 138.975C79.042 137.978 78.0454 137.198 76.832 136.635C75.662 136.028 74.4054 135.725 73.062 135.725C71.762 135.725 70.5487 135.898 69.422 136.245C68.2954 136.592 67.3204 137.177 66.497 138C65.6737 138.823 65.0237 139.928 64.547 141.315C64.0704 142.702 63.832 144.457 63.832 146.58C63.832 148.92 64.3087 150.913 65.262 152.56C66.2587 154.163 67.5154 155.398 69.032 156.265C70.592 157.088 72.2387 157.5 73.972 157.5C75.5754 157.5 76.8537 157.37 77.807 157.11C78.7604 156.85 79.5187 156.547 80.082 156.2C80.6887 155.81 81.2304 155.485 81.707 155.225C82.487 154.835 83.2237 154.64 83.917 154.64C84.8704 154.64 85.6504 154.965 86.257 155.615C86.907 156.265 87.232 157.023 87.232 157.89C87.232 159.06 86.6254 160.122 85.412 161.075C84.2854 162.028 82.7037 162.873 80.667 163.61C78.6304 164.303 76.5287 164.65 74.362 164.65ZM114.277 128.575C117.744 128.575 120.3 129.42 121.947 131.11C123.594 132.757 124.677 134.902 125.197 137.545L124.092 136.96L124.612 135.92C125.132 134.923 125.934 133.862 127.017 132.735C128.1 131.565 129.4 130.59 130.917 129.81C132.477 128.987 134.21 128.575 136.117 128.575C139.237 128.575 141.599 129.247 143.202 130.59C144.849 131.933 145.975 133.732 146.582 135.985C147.189 138.195 147.492 140.665 147.492 143.395V160.035C147.492 161.162 147.124 162.115 146.387 162.895C145.65 163.632 144.719 164 143.592 164C142.465 164 141.534 163.632 140.797 162.895C140.06 162.115 139.692 161.162 139.692 160.035V143.395C139.692 141.965 139.519 140.687 139.172 139.56C138.825 138.39 138.197 137.458 137.287 136.765C136.377 136.072 135.077 135.725 133.387 135.725C131.74 135.725 130.332 136.072 129.162 136.765C127.992 137.458 127.104 138.39 126.497 139.56C125.934 140.687 125.652 141.965 125.652 143.395V160.035C125.652 161.162 125.284 162.115 124.547 162.895C123.81 163.632 122.879 164 121.752 164C120.625 164 119.694 163.632 118.957 162.895C118.22 162.115 117.852 161.162 117.852 160.035V143.395C117.852 141.965 117.679 140.687 117.332 139.56C116.985 138.39 116.357 137.458 115.447 136.765C114.537 136.072 113.237 135.725 111.547 135.725C109.9 135.725 108.492 136.072 107.322 136.765C106.152 137.458 105.264 138.39 104.657 139.56C104.094 140.687 103.812 141.965 103.812 143.395V160.035C103.812 161.162 103.444 162.115 102.707 162.895C101.97 163.632 101.039 164 99.9121 164C98.7854 164 97.8538 163.632 97.1171 162.895C96.3804 162.115 96.0121 161.162 96.0121 160.035V133.19C96.0121 132.063 96.3804 131.132 97.1171 130.395C97.8538 129.615 98.7854 129.225 99.9121 129.225C101.039 129.225 101.97 129.615 102.707 130.395C103.444 131.132 103.812 132.063 103.812 133.19V135.985L102.837 135.79C103.227 135.053 103.769 134.273 104.462 133.45C105.155 132.583 106 131.782 106.997 131.045C107.994 130.308 109.099 129.723 110.312 129.29C111.525 128.813 112.847 128.575 114.277 128.575ZM171.989 164.65C168.306 164.65 165.099 163.892 162.369 162.375C159.682 160.815 157.602 158.713 156.129 156.07C154.699 153.427 153.984 150.437 153.984 147.1C153.984 143.2 154.764 139.885 156.324 137.155C157.927 134.382 160.007 132.258 162.564 130.785C165.121 129.312 167.829 128.575 170.689 128.575C172.899 128.575 174.979 129.03 176.929 129.94C178.922 130.85 180.677 132.107 182.194 133.71C183.711 135.27 184.902 137.09 185.769 139.17C186.679 141.25 187.134 143.46 187.134 145.8C187.091 146.84 186.679 147.685 185.899 148.335C185.119 148.985 184.209 149.31 183.169 149.31H158.339L156.389 142.81H180.244L178.814 144.11V142.355C178.727 141.098 178.272 139.972 177.449 138.975C176.669 137.978 175.672 137.198 174.459 136.635C173.289 136.028 172.032 135.725 170.689 135.725C169.389 135.725 168.176 135.898 167.049 136.245C165.922 136.592 164.947 137.177 164.124 138C163.301 138.823 162.651 139.928 162.174 141.315C161.697 142.702 161.459 144.457 161.459 146.58C161.459 148.92 161.936 150.913 162.889 152.56C163.886 154.163 165.142 155.398 166.659 156.265C168.219 157.088 169.866 157.5 171.599 157.5C173.202 157.5 174.481 157.37 175.434 157.11C176.387 156.85 177.146 156.547 177.709 156.2C178.316 155.81 178.857 155.485 179.334 155.225C180.114 154.835 180.851 154.64 181.544 154.64C182.497 154.64 183.277 154.965 183.884 155.615C184.534 156.265 184.859 157.023 184.859 157.89C184.859 159.06 184.252 160.122 183.039 161.075C181.912 162.028 180.331 162.873 178.294 163.61C176.257 164.303 174.156 164.65 171.989 164.65ZM212.229 128.575C215.436 128.575 217.862 129.247 219.509 130.59C221.199 131.933 222.347 133.732 222.954 135.985C223.604 138.195 223.929 140.665 223.929 143.395V160.035C223.929 161.162 223.561 162.115 222.824 162.895C222.087 163.632 221.156 164 220.029 164C218.902 164 217.971 163.632 217.234 162.895C216.497 162.115 216.129 161.162 216.129 160.035V143.395C216.129 141.965 215.934 140.687 215.544 139.56C215.197 138.39 214.547 137.458 213.594 136.765C212.641 136.072 211.276 135.725 209.499 135.725C207.766 135.725 206.292 136.072 205.079 136.765C203.909 137.458 202.999 138.39 202.349 139.56C201.742 140.687 201.439 141.965 201.439 143.395V160.035C201.439 161.162 201.071 162.115 200.334 162.895C199.597 163.632 198.666 164 197.539 164C196.412 164 195.481 163.632 194.744 162.895C194.007 162.115 193.639 161.162 193.639 160.035V133.19C193.639 132.063 194.007 131.132 194.744 130.395C195.481 129.615 196.412 129.225 197.539 129.225C198.666 129.225 199.597 129.615 200.334 130.395C201.071 131.132 201.439 132.063 201.439 133.19V135.985L200.464 135.79C200.854 135.053 201.417 134.273 202.154 133.45C202.891 132.583 203.757 131.782 204.754 131.045C205.751 130.308 206.877 129.723 208.134 129.29C209.391 128.813 210.756 128.575 212.229 128.575ZM232.75 129.875H248.155C249.195 129.875 250.061 130.222 250.755 130.915C251.448 131.608 251.795 132.475 251.795 133.515C251.795 134.512 251.448 135.357 250.755 136.05C250.061 136.7 249.195 137.025 248.155 137.025H232.75C231.71 137.025 230.843 136.678 230.15 135.985C229.456 135.292 229.11 134.425 229.11 133.385C229.11 132.388 229.456 131.565 230.15 130.915C230.843 130.222 231.71 129.875 232.75 129.875ZM239.705 121.75C240.831 121.75 241.741 122.14 242.435 122.92C243.171 123.657 243.54 124.588 243.54 125.715V154.64C243.54 155.247 243.648 155.745 243.865 156.135C244.125 156.525 244.45 156.807 244.84 156.98C245.273 157.153 245.728 157.24 246.205 157.24C246.725 157.24 247.201 157.153 247.635 156.98C248.068 156.763 248.566 156.655 249.13 156.655C249.736 156.655 250.278 156.937 250.755 157.5C251.275 158.063 251.535 158.843 251.535 159.84C251.535 161.053 250.863 162.05 249.52 162.83C248.22 163.61 246.811 164 245.295 164C244.385 164 243.366 163.935 242.24 163.805C241.156 163.632 240.116 163.263 239.12 162.7C238.166 162.093 237.365 161.183 236.715 159.97C236.065 158.757 235.74 157.088 235.74 154.965V125.715C235.74 124.588 236.108 123.657 236.845 122.92C237.625 122.14 238.578 121.75 239.705 121.75ZM258.211 158.605C257.778 157.998 257.583 157.218 257.626 156.265C257.669 155.312 258.233 154.488 259.316 153.795C260.009 153.362 260.746 153.188 261.526 153.275C262.306 153.318 263.064 153.708 263.801 154.445C265.058 155.702 266.379 156.677 267.766 157.37C269.153 158.063 270.886 158.41 272.966 158.41C273.616 158.367 274.331 158.28 275.111 158.15C275.891 157.977 276.563 157.63 277.126 157.11C277.733 156.547 278.036 155.702 278.036 154.575C278.036 153.622 277.711 152.863 277.061 152.3C276.411 151.737 275.544 151.26 274.461 150.87C273.421 150.48 272.251 150.112 270.951 149.765C269.608 149.375 268.221 148.942 266.791 148.465C265.404 147.988 264.126 147.382 262.956 146.645C261.786 145.865 260.833 144.847 260.096 143.59C259.359 142.333 258.991 140.752 258.991 138.845C258.991 136.678 259.598 134.837 260.811 133.32C262.024 131.803 263.584 130.633 265.491 129.81C267.441 128.987 269.478 128.575 271.601 128.575C272.944 128.575 274.353 128.748 275.826 129.095C277.299 129.398 278.708 129.918 280.051 130.655C281.394 131.348 282.521 132.28 283.431 133.45C283.908 134.1 284.189 134.88 284.276 135.79C284.363 136.7 283.951 137.523 283.041 138.26C282.391 138.78 281.633 139.018 280.766 138.975C279.899 138.888 279.184 138.585 278.621 138.065C277.884 137.112 276.888 136.353 275.631 135.79C274.418 135.227 273.009 134.945 271.406 134.945C270.756 134.945 270.041 135.032 269.261 135.205C268.524 135.335 267.874 135.66 267.311 136.18C266.748 136.657 266.466 137.437 266.466 138.52C266.466 139.517 266.791 140.318 267.441 140.925C268.091 141.488 268.958 141.965 270.041 142.355C271.168 142.702 272.359 143.048 273.616 143.395C274.916 143.742 276.238 144.153 277.581 144.63C278.924 145.107 280.159 145.735 281.286 146.515C282.413 147.295 283.323 148.313 284.016 149.57C284.709 150.783 285.056 152.343 285.056 154.25C285.056 156.46 284.406 158.345 283.106 159.905C281.806 161.465 280.181 162.657 278.231 163.48C276.281 164.26 274.288 164.65 272.251 164.65C269.694 164.65 267.138 164.217 264.581 163.35C262.024 162.44 259.901 160.858 258.211 158.605ZM449.221 128.575C450.347 128.575 451.279 128.943 452.016 129.68C452.752 130.417 453.121 131.37 453.121 132.54V160.035C453.121 161.162 452.752 162.115 452.016 162.895C451.279 163.632 450.347 164 449.221 164C448.094 164 447.162 163.632 446.426 162.895C445.689 162.115 445.321 161.162 445.321 160.035V156.85L446.751 157.435C446.751 157.998 446.447 158.692 445.841 159.515C445.234 160.295 444.411 161.075 443.371 161.855C442.331 162.635 441.096 163.307 439.666 163.87C438.279 164.39 436.762 164.65 435.116 164.65C432.126 164.65 429.417 163.892 426.991 162.375C424.564 160.815 422.636 158.692 421.206 156.005C419.819 153.275 419.126 150.155 419.126 146.645C419.126 143.092 419.819 139.972 421.206 137.285C422.636 134.555 424.542 132.432 426.926 130.915C429.309 129.355 431.952 128.575 434.856 128.575C436.719 128.575 438.431 128.857 439.991 129.42C441.551 129.983 442.894 130.698 444.021 131.565C445.191 132.432 446.079 133.32 446.686 134.23C447.336 135.097 447.661 135.833 447.661 136.44L445.321 137.285V132.54C445.321 131.413 445.689 130.482 446.426 129.745C447.162 128.965 448.094 128.575 449.221 128.575ZM436.091 157.5C437.997 157.5 439.666 157.023 441.096 156.07C442.526 155.117 443.631 153.817 444.411 152.17C445.234 150.523 445.646 148.682 445.646 146.645C445.646 144.565 445.234 142.702 444.411 141.055C443.631 139.408 442.526 138.108 441.096 137.155C439.666 136.202 437.997 135.725 436.091 135.725C434.227 135.725 432.581 136.202 431.151 137.155C429.721 138.108 428.594 139.408 427.771 141.055C426.991 142.702 426.601 144.565 426.601 146.645C426.601 148.682 426.991 150.523 427.771 152.17C428.594 153.817 429.721 155.117 431.151 156.07C432.581 157.023 434.227 157.5 436.091 157.5ZM8.97 257C7.75667 257 6.76 256.632 5.98 255.895C5.24333 255.115 4.875 254.162 4.875 253.035V215.465C4.875 214.338 5.24333 213.407 5.98 212.67C6.76 211.89 7.71333 211.5 8.84 211.5H29.965C31.0917 211.5 32.0233 211.868 32.76 212.605C33.54 213.298 33.93 214.208 33.93 215.335C33.93 216.288 33.54 217.133 32.76 217.87C32.0233 218.607 31.0917 218.975 29.965 218.975H12.415L13 218.195V231.26L12.545 230.415H27.04C28.1667 230.415 29.0983 230.783 29.835 231.52C30.615 232.213 31.005 233.123 31.005 234.25C31.005 235.203 30.615 236.048 29.835 236.785C29.0983 237.522 28.1667 237.89 27.04 237.89H12.415L13 237.305V253.035C13 254.162 12.5883 255.115 11.765 255.895C10.985 256.632 10.0533 257 8.97 257ZM65.5769 222.225C66.7035 222.225 67.6352 222.615 68.3719 223.395C69.1085 224.132 69.4769 225.063 69.4769 226.19V242.7C69.4769 247.293 68.1985 250.933 65.6419 253.62C63.0852 256.307 59.4019 257.65 54.5919 257.65C49.7819 257.65 46.0985 256.307 43.5419 253.62C41.0285 250.933 39.7719 247.293 39.7719 242.7V226.19C39.7719 225.063 40.1402 224.132 40.8769 223.395C41.6135 222.615 42.5452 222.225 43.6719 222.225C44.7985 222.225 45.7302 222.615 46.4669 223.395C47.2035 224.132 47.5719 225.063 47.5719 226.19V242.7C47.5719 245.343 48.1569 247.315 49.3269 248.615C50.4969 249.872 52.2519 250.5 54.5919 250.5C56.9752 250.5 58.7519 249.872 59.9219 248.615C61.0919 247.315 61.6769 245.343 61.6769 242.7V226.19C61.6769 225.063 62.0452 224.132 62.7819 223.395C63.5185 222.615 64.4502 222.225 65.5769 222.225ZM96.5113 221.575C99.718 221.575 102.145 222.247 103.791 223.59C105.481 224.933 106.63 226.732 107.236 228.985C107.886 231.195 108.211 233.665 108.211 236.395V253.035C108.211 254.162 107.843 255.115 107.106 255.895C106.37 256.632 105.438 257 104.311 257C103.185 257 102.253 256.632 101.516 255.895C100.78 255.115 100.411 254.162 100.411 253.035V236.395C100.411 234.965 100.216 233.687 99.8263 232.56C99.4796 231.39 98.8296 230.458 97.8763 229.765C96.923 229.072 95.558 228.725 93.7813 228.725C92.048 228.725 90.5746 229.072 89.3613 229.765C88.1913 230.458 87.2813 231.39 86.6313 232.56C86.0246 233.687 85.7213 234.965 85.7213 236.395V253.035C85.7213 254.162 85.353 255.115 84.6163 255.895C83.8796 256.632 82.948 257 81.8213 257C80.6946 257 79.763 256.632 79.0263 255.895C78.2896 255.115 77.9213 254.162 77.9213 253.035V226.19C77.9213 225.063 78.2896 224.132 79.0263 223.395C79.763 222.615 80.6946 222.225 81.8213 222.225C82.948 222.225 83.8796 222.615 84.6163 223.395C85.353 224.132 85.7213 225.063 85.7213 226.19V228.985L84.7463 228.79C85.1363 228.053 85.6996 227.273 86.4363 226.45C87.173 225.583 88.0396 224.782 89.0363 224.045C90.033 223.308 91.1596 222.723 92.4163 222.29C93.673 221.813 95.038 221.575 96.5113 221.575ZM152.215 221.705L138.175 254.725C137.871 255.548 137.395 256.198 136.745 256.675C136.138 257.108 135.466 257.325 134.73 257.325C133.56 257.325 132.693 257 132.13 256.35C131.566 255.7 131.285 254.898 131.285 253.945C131.285 253.555 131.35 253.143 131.48 252.71L147.665 213.84C148.011 212.973 148.531 212.302 149.225 211.825C149.961 211.348 150.741 211.153 151.565 211.24C152.345 211.24 153.06 211.478 153.71 211.955C154.403 212.388 154.901 213.017 155.205 213.84L171.195 251.93C171.411 252.493 171.52 253.013 171.52 253.49C171.52 254.66 171.13 255.592 170.35 256.285C169.613 256.978 168.79 257.325 167.88 257.325C167.1 257.325 166.385 257.087 165.735 256.61C165.128 256.133 164.651 255.483 164.305 254.66L150.33 222.095L152.215 221.705ZM140.19 246.795L143.765 239.32H161.315L162.55 246.795H140.19ZM194.963 221.575C198.17 221.575 200.597 222.247 202.243 223.59C203.933 224.933 205.082 226.732 205.688 228.985C206.338 231.195 206.663 233.665 206.663 236.395V253.035C206.663 254.162 206.295 255.115 205.558 255.895C204.822 256.632 203.89 257 202.763 257C201.637 257 200.705 256.632 199.968 255.895C199.232 255.115 198.863 254.162 198.863 253.035V236.395C198.863 234.965 198.668 233.687 198.278 232.56C197.932 231.39 197.282 230.458 196.328 229.765C195.375 229.072 194.01 228.725 192.233 228.725C190.5 228.725 189.027 229.072 187.813 229.765C186.643 230.458 185.733 231.39 185.083 232.56C184.477 233.687 184.173 234.965 184.173 236.395V253.035C184.173 254.162 183.805 255.115 183.068 255.895C182.332 256.632 181.4 257 180.273 257C179.147 257 178.215 256.632 177.478 255.895C176.742 255.115 176.373 254.162 176.373 253.035V226.19C176.373 225.063 176.742 224.132 177.478 223.395C178.215 222.615 179.147 222.225 180.273 222.225C181.4 222.225 182.332 222.615 183.068 223.395C183.805 224.132 184.173 225.063 184.173 226.19V228.985L183.198 228.79C183.588 228.053 184.152 227.273 184.888 226.45C185.625 225.583 186.492 224.782 187.488 224.045C188.485 223.308 189.612 222.723 190.868 222.29C192.125 221.813 193.49 221.575 194.963 221.575ZM243.239 208.9C244.366 208.9 245.297 209.268 246.034 210.005C246.771 210.742 247.139 211.695 247.139 212.865V253.035C247.139 254.162 246.771 255.115 246.034 255.895C245.297 256.632 244.366 257 243.239 257C242.112 257 241.181 256.632 240.444 255.895C239.707 255.115 239.339 254.162 239.339 253.035V249.85L240.769 250.435C240.769 250.998 240.466 251.692 239.859 252.515C239.252 253.295 238.429 254.075 237.389 254.855C236.349 255.635 235.114 256.307 233.684 256.87C232.297 257.39 230.781 257.65 229.134 257.65C226.144 257.65 223.436 256.892 221.009 255.375C218.582 253.815 216.654 251.692 215.224 249.005C213.837 246.275 213.144 243.155 213.144 239.645C213.144 236.092 213.837 232.972 215.224 230.285C216.654 227.555 218.561 225.432 220.944 223.915C223.327 222.355 225.971 221.575 228.874 221.575C230.737 221.575 232.449 221.857 234.009 222.42C235.569 222.983 236.912 223.698 238.039 224.565C239.209 225.432 240.097 226.32 240.704 227.23C241.354 228.097 241.679 228.833 241.679 229.44L239.339 230.285V212.865C239.339 211.738 239.707 210.807 240.444 210.07C241.181 209.29 242.112 208.9 243.239 208.9ZM230.109 250.5C232.016 250.5 233.684 250.023 235.114 249.07C236.544 248.117 237.649 246.817 238.429 245.17C239.252 243.523 239.664 241.682 239.664 239.645C239.664 237.565 239.252 235.702 238.429 234.055C237.649 232.408 236.544 231.108 235.114 230.155C233.684 229.202 232.016 228.725 230.109 228.725C228.246 228.725 226.599 229.202 225.169 230.155C223.739 231.108 222.612 232.408 221.789 234.055C221.009 235.702 220.619 237.565 220.619 239.645C220.619 241.682 221.009 243.523 221.789 245.17C222.612 246.817 223.739 248.117 225.169 249.07C226.599 250.023 228.246 250.5 230.109 250.5ZM289.865 257C288.652 257 287.655 256.632 286.875 255.895C286.095 255.115 285.705 254.162 285.705 253.035V215.335H294.155V253.035C294.155 254.162 293.743 255.115 292.92 255.895C292.14 256.632 291.122 257 289.865 257ZM275.5 218.975C274.373 218.975 273.42 218.628 272.64 217.935C271.903 217.242 271.535 216.332 271.535 215.205C271.535 214.078 271.903 213.19 272.64 212.54C273.42 211.847 274.373 211.5 275.5 211.5H304.36C305.487 211.5 306.418 211.847 307.155 212.54C307.935 213.233 308.325 214.143 308.325 215.27C308.325 216.397 307.935 217.307 307.155 218C306.418 218.65 305.487 218.975 304.36 218.975H275.5ZM314.526 257C313.4 257 312.468 256.632 311.731 255.895C310.995 255.115 310.626 254.162 310.626 253.035V226.19C310.626 225.063 310.995 224.132 311.731 223.395C312.468 222.615 313.4 222.225 314.526 222.225C315.653 222.225 316.585 222.615 317.321 223.395C318.058 224.132 318.426 225.063 318.426 226.19V232.3L317.971 227.945C318.448 226.905 319.055 225.995 319.791 225.215C320.571 224.392 321.438 223.72 322.391 223.2C323.345 222.637 324.363 222.225 325.446 221.965C326.53 221.705 327.613 221.575 328.696 221.575C329.996 221.575 331.08 221.943 331.946 222.68C332.856 223.417 333.311 224.283 333.311 225.28C333.311 226.71 332.943 227.75 332.206 228.4C331.47 229.007 330.668 229.31 329.801 229.31C328.978 229.31 328.22 229.158 327.526 228.855C326.876 228.552 326.118 228.4 325.251 228.4C324.471 228.4 323.67 228.595 322.846 228.985C322.066 229.332 321.33 229.895 320.636 230.675C319.986 231.455 319.445 232.43 319.011 233.6C318.621 234.727 318.426 236.07 318.426 237.63V253.035C318.426 254.162 318.058 255.115 317.321 255.895C316.585 256.632 315.653 257 314.526 257ZM366.193 221.575C367.32 221.575 368.252 221.943 368.988 222.68C369.725 223.417 370.093 224.37 370.093 225.54V253.035C370.093 254.162 369.725 255.115 368.988 255.895C368.252 256.632 367.32 257 366.193 257C365.067 257 364.135 256.632 363.398 255.895C362.662 255.115 362.293 254.162 362.293 253.035V249.85L363.723 250.435C363.723 250.998 363.42 251.692 362.813 252.515C362.207 253.295 361.383 254.075 360.343 254.855C359.303 255.635 358.068 256.307 356.638 256.87C355.252 257.39 353.735 257.65 352.088 257.65C349.098 257.65 346.39 256.892 343.963 255.375C341.537 253.815 339.608 251.692 338.178 249.005C336.792 246.275 336.098 243.155 336.098 239.645C336.098 236.092 336.792 232.972 338.178 230.285C339.608 227.555 341.515 225.432 343.898 223.915C346.282 222.355 348.925 221.575 351.828 221.575C353.692 221.575 355.403 221.857 356.963 222.42C358.523 222.983 359.867 223.698 360.993 224.565C362.163 225.432 363.052 226.32 363.658 227.23C364.308 228.097 364.633 228.833 364.633 229.44L362.293 230.285V225.54C362.293 224.413 362.662 223.482 363.398 222.745C364.135 221.965 365.067 221.575 366.193 221.575ZM353.063 250.5C354.97 250.5 356.638 250.023 358.068 249.07C359.498 248.117 360.603 246.817 361.383 245.17C362.207 243.523 362.618 241.682 362.618 239.645C362.618 237.565 362.207 235.702 361.383 234.055C360.603 232.408 359.498 231.108 358.068 230.155C356.638 229.202 354.97 228.725 353.063 228.725C351.2 228.725 349.553 229.202 348.123 230.155C346.693 231.108 345.567 232.408 344.743 234.055C343.963 235.702 343.573 237.565 343.573 239.645C343.573 241.682 343.963 243.523 344.743 245.17C345.567 246.817 346.693 248.117 348.123 249.07C349.553 250.023 351.2 250.5 353.063 250.5ZM406.691 208.9C407.818 208.9 408.75 209.268 409.486 210.005C410.223 210.742 410.591 211.695 410.591 212.865V253.035C410.591 254.162 410.223 255.115 409.486 255.895C408.75 256.632 407.818 257 406.691 257C405.565 257 404.633 256.632 403.896 255.895C403.16 255.115 402.791 254.162 402.791 253.035V249.85L404.221 250.435C404.221 250.998 403.918 251.692 403.311 252.515C402.705 253.295 401.881 254.075 400.841 254.855C399.801 255.635 398.566 256.307 397.136 256.87C395.75 257.39 394.233 257.65 392.586 257.65C389.596 257.65 386.888 256.892 384.461 255.375C382.035 253.815 380.106 251.692 378.676 249.005C377.29 246.275 376.596 243.155 376.596 239.645C376.596 236.092 377.29 232.972 378.676 230.285C380.106 227.555 382.013 225.432 384.396 223.915C386.78 222.355 389.423 221.575 392.326 221.575C394.19 221.575 395.901 221.857 397.461 222.42C399.021 222.983 400.365 223.698 401.491 224.565C402.661 225.432 403.55 226.32 404.156 227.23C404.806 228.097 405.131 228.833 405.131 229.44L402.791 230.285V212.865C402.791 211.738 403.16 210.807 403.896 210.07C404.633 209.29 405.565 208.9 406.691 208.9ZM393.561 250.5C395.468 250.5 397.136 250.023 398.566 249.07C399.996 248.117 401.101 246.817 401.881 245.17C402.705 243.523 403.116 241.682 403.116 239.645C403.116 237.565 402.705 235.702 401.881 234.055C401.101 232.408 399.996 231.108 398.566 230.155C397.136 229.202 395.468 228.725 393.561 228.725C391.698 228.725 390.051 229.202 388.621 230.155C387.191 231.108 386.065 232.408 385.241 234.055C384.461 235.702 384.071 237.565 384.071 239.645C384.071 241.682 384.461 243.523 385.241 245.17C386.065 246.817 387.191 248.117 388.621 249.07C390.051 250.023 391.698 250.5 393.561 250.5ZM426.389 253.035C426.389 254.162 426.021 255.115 425.284 255.895C424.548 256.632 423.616 257 422.489 257C421.363 257 420.431 256.632 419.694 255.895C418.958 255.115 418.589 254.162 418.589 253.035V226.19C418.589 225.063 418.958 224.132 419.694 223.395C420.431 222.615 421.363 222.225 422.489 222.225C423.616 222.225 424.548 222.615 425.284 223.395C426.021 224.132 426.389 225.063 426.389 226.19V253.035ZM422.424 218C420.951 218 419.911 217.762 419.304 217.285C418.698 216.808 418.394 215.963 418.394 214.75V213.515C418.394 212.258 418.719 211.413 419.369 210.98C420.063 210.503 421.103 210.265 422.489 210.265C424.006 210.265 425.068 210.503 425.674 210.98C426.281 211.457 426.584 212.302 426.584 213.515V214.75C426.584 216.007 426.259 216.873 425.609 217.35C424.959 217.783 423.898 218 422.424 218ZM434.796 222.875H450.201C451.241 222.875 452.107 223.222 452.801 223.915C453.494 224.608 453.841 225.475 453.841 226.515C453.841 227.512 453.494 228.357 452.801 229.05C452.107 229.7 451.241 230.025 450.201 230.025H434.796C433.756 230.025 432.889 229.678 432.196 228.985C431.502 228.292 431.156 227.425 431.156 226.385C431.156 225.388 431.502 224.565 432.196 223.915C432.889 223.222 433.756 222.875 434.796 222.875ZM441.751 214.75C442.877 214.75 443.787 215.14 444.481 215.92C445.217 216.657 445.586 217.588 445.586 218.715V247.64C445.586 248.247 445.694 248.745 445.911 249.135C446.171 249.525 446.496 249.807 446.886 249.98C447.319 250.153 447.774 250.24 448.251 250.24C448.771 250.24 449.247 250.153 449.681 249.98C450.114 249.763 450.612 249.655 451.176 249.655C451.782 249.655 452.324 249.937 452.801 250.5C453.321 251.063 453.581 251.843 453.581 252.84C453.581 254.053 452.909 255.05 451.566 255.83C450.266 256.61 448.857 257 447.341 257C446.431 257 445.412 256.935 444.286 256.805C443.202 256.632 442.162 256.263 441.166 255.7C440.212 255.093 439.411 254.183 438.761 252.97C438.111 251.757 437.786 250.088 437.786 247.965V218.715C437.786 217.588 438.154 216.657 438.891 215.92C439.671 215.14 440.624 214.75 441.751 214.75ZM468.347 253.035C468.347 254.162 467.979 255.115 467.242 255.895C466.506 256.632 465.574 257 464.447 257C463.321 257 462.389 256.632 461.652 255.895C460.916 255.115 460.547 254.162 460.547 253.035V226.19C460.547 225.063 460.916 224.132 461.652 223.395C462.389 222.615 463.321 222.225 464.447 222.225C465.574 222.225 466.506 222.615 467.242 223.395C467.979 224.132 468.347 225.063 468.347 226.19V253.035ZM464.382 218C462.909 218 461.869 217.762 461.262 217.285C460.656 216.808 460.352 215.963 460.352 214.75V213.515C460.352 212.258 460.677 211.413 461.327 210.98C462.021 210.503 463.061 210.265 464.447 210.265C465.964 210.265 467.026 210.503 467.632 210.98C468.239 211.457 468.542 212.302 468.542 213.515V214.75C468.542 216.007 468.217 216.873 467.567 217.35C466.917 217.783 465.856 218 464.382 218ZM509.774 239.645C509.774 243.198 508.972 246.34 507.369 249.07C505.809 251.757 503.685 253.858 500.999 255.375C498.355 256.892 495.387 257.65 492.094 257.65C488.8 257.65 485.81 256.892 483.124 255.375C480.48 253.858 478.357 251.757 476.754 249.07C475.194 246.34 474.414 243.198 474.414 239.645C474.414 236.092 475.194 232.972 476.754 230.285C478.357 227.555 480.48 225.432 483.124 223.915C485.81 222.355 488.8 221.575 492.094 221.575C495.387 221.575 498.355 222.355 500.999 223.915C503.685 225.432 505.809 227.555 507.369 230.285C508.972 232.972 509.774 236.092 509.774 239.645ZM501.974 239.645C501.974 237.435 501.519 235.528 500.609 233.925C499.742 232.278 498.55 231 497.034 230.09C495.56 229.18 493.914 228.725 492.094 228.725C490.274 228.725 488.605 229.18 487.089 230.09C485.615 231 484.424 232.278 483.514 233.925C482.647 235.528 482.214 237.435 482.214 239.645C482.214 241.812 482.647 243.718 483.514 245.365C484.424 246.968 485.615 248.225 487.089 249.135C488.605 250.045 490.274 250.5 492.094 250.5C493.914 250.5 495.56 250.045 497.034 249.135C498.55 248.225 499.742 246.968 500.609 245.365C501.519 243.718 501.974 241.812 501.974 239.645ZM534.88 221.575C538.087 221.575 540.514 222.247 542.16 223.59C543.85 224.933 544.999 226.732 545.605 228.985C546.255 231.195 546.58 233.665 546.58 236.395V253.035C546.58 254.162 546.212 255.115 545.475 255.895C544.739 256.632 543.807 257 542.68 257C541.554 257 540.622 256.632 539.885 255.895C539.149 255.115 538.78 254.162 538.78 253.035V236.395C538.78 234.965 538.585 233.687 538.195 232.56C537.849 231.39 537.199 230.458 536.245 229.765C535.292 229.072 533.927 228.725 532.15 228.725C530.417 228.725 528.944 229.072 527.73 229.765C526.56 230.458 525.65 231.39 525 232.56C524.394 233.687 524.09 234.965 524.09 236.395V253.035C524.09 254.162 523.722 255.115 522.985 255.895C522.249 256.632 521.317 257 520.19 257C519.064 257 518.132 256.632 517.395 255.895C516.659 255.115 516.29 254.162 516.29 253.035V226.19C516.29 225.063 516.659 224.132 517.395 223.395C518.132 222.615 519.064 222.225 520.19 222.225C521.317 222.225 522.249 222.615 522.985 223.395C523.722 224.132 524.09 225.063 524.09 226.19V228.985L523.115 228.79C523.505 228.053 524.069 227.273 524.805 226.45C525.542 225.583 526.409 224.782 527.405 224.045C528.402 223.308 529.529 222.723 530.785 222.29C532.042 221.813 533.407 221.575 534.88 221.575ZM583.156 221.575C584.283 221.575 585.214 221.943 585.951 222.68C586.688 223.417 587.056 224.37 587.056 225.54V253.035C587.056 254.162 586.688 255.115 585.951 255.895C585.214 256.632 584.283 257 583.156 257C582.029 257 581.098 256.632 580.361 255.895C579.624 255.115 579.256 254.162 579.256 253.035V249.85L580.686 250.435C580.686 250.998 580.383 251.692 579.776 252.515C579.169 253.295 578.346 254.075 577.306 254.855C576.266 255.635 575.031 256.307 573.601 256.87C572.214 257.39 570.698 257.65 569.051 257.65C566.061 257.65 563.353 256.892 560.926 255.375C558.499 253.815 556.571 251.692 555.141 249.005C553.754 246.275 553.061 243.155 553.061 239.645C553.061 236.092 553.754 232.972 555.141 230.285C556.571 227.555 558.478 225.432 560.861 223.915C563.244 222.355 565.888 221.575 568.791 221.575C570.654 221.575 572.366 221.857 573.926 222.42C575.486 222.983 576.829 223.698 577.956 224.565C579.126 225.432 580.014 226.32 580.621 227.23C581.271 228.097 581.596 228.833 581.596 229.44L579.256 230.285V225.54C579.256 224.413 579.624 223.482 580.361 222.745C581.098 221.965 582.029 221.575 583.156 221.575ZM570.026 250.5C571.933 250.5 573.601 250.023 575.031 249.07C576.461 248.117 577.566 246.817 578.346 245.17C579.169 243.523 579.581 241.682 579.581 239.645C579.581 237.565 579.169 235.702 578.346 234.055C577.566 232.408 576.461 231.108 575.031 230.155C573.601 229.202 571.933 228.725 570.026 228.725C568.163 228.725 566.516 229.202 565.086 230.155C563.656 231.108 562.529 232.408 561.706 234.055C560.926 235.702 560.536 237.565 560.536 239.645C560.536 241.682 560.926 243.523 561.706 245.17C562.529 246.817 563.656 248.117 565.086 249.07C566.516 250.023 568.163 250.5 570.026 250.5ZM603.959 253.035C603.959 254.162 603.569 255.115 602.789 255.895C602.053 256.632 601.121 257 599.994 257C598.911 257 598.001 256.632 597.264 255.895C596.528 255.115 596.159 254.162 596.159 253.035V212.865C596.159 211.738 596.528 210.807 597.264 210.07C598.044 209.29 598.998 208.9 600.124 208.9C601.251 208.9 602.161 209.29 602.854 210.07C603.591 210.807 603.959 211.738 603.959 212.865V253.035ZM719.487 211.305C720.484 211.305 721.437 211.695 722.347 212.475C723.257 213.212 723.712 214.23 723.712 215.53C723.712 215.92 723.647 216.353 723.517 216.83L710.712 254.53C710.452 255.31 709.975 255.917 709.282 256.35C708.632 256.74 707.939 256.957 707.202 257C706.465 257 705.729 256.783 704.992 256.35C704.299 255.917 703.757 255.288 703.367 254.465L693.747 232.625L694.332 233.015L684.842 254.465C684.452 255.288 683.889 255.917 683.152 256.35C682.459 256.783 681.744 257 681.007 257C680.314 256.957 679.62 256.74 678.927 256.35C678.234 255.917 677.757 255.31 677.497 254.53L664.692 216.83C664.562 216.353 664.497 215.92 664.497 215.53C664.497 214.23 664.952 213.212 665.862 212.475C666.815 211.695 667.79 211.305 668.787 211.305C669.61 211.305 670.369 211.522 671.062 211.955C671.799 212.388 672.297 213.017 672.557 213.84L682.892 245.17L681.462 245.105L690.692 222.94C691.039 222.16 691.537 221.553 692.187 221.12C692.837 220.643 693.574 220.427 694.397 220.47C695.22 220.427 695.957 220.643 696.607 221.12C697.257 221.553 697.734 222.16 698.037 222.94L706.487 244.13L705.447 244.78L715.652 213.84C715.912 213.017 716.41 212.388 717.147 211.955C717.884 211.522 718.664 211.305 719.487 211.305ZM756.574 221.575C757.701 221.575 758.632 221.943 759.369 222.68C760.106 223.417 760.474 224.37 760.474 225.54V253.035C760.474 254.162 760.106 255.115 759.369 255.895C758.632 256.632 757.701 257 756.574 257C755.447 257 754.516 256.632 753.779 255.895C753.042 255.115 752.674 254.162 752.674 253.035V249.85L754.104 250.435C754.104 250.998 753.801 251.692 753.194 252.515C752.587 253.295 751.764 254.075 750.724 254.855C749.684 255.635 748.449 256.307 747.019 256.87C745.632 257.39 744.116 257.65 742.469 257.65C739.479 257.65 736.771 256.892 734.344 255.375C731.917 253.815 729.989 251.692 728.559 249.005C727.172 246.275 726.479 243.155 726.479 239.645C726.479 236.092 727.172 232.972 728.559 230.285C729.989 227.555 731.896 225.432 734.279 223.915C736.662 222.355 739.306 221.575 742.209 221.575C744.072 221.575 745.784 221.857 747.344 222.42C748.904 222.983 750.247 223.698 751.374 224.565C752.544 225.432 753.432 226.32 754.039 227.23C754.689 228.097 755.014 228.833 755.014 229.44L752.674 230.285V225.54C752.674 224.413 753.042 223.482 753.779 222.745C754.516 221.965 755.447 221.575 756.574 221.575ZM743.444 250.5C745.351 250.5 747.019 250.023 748.449 249.07C749.879 248.117 750.984 246.817 751.764 245.17C752.587 243.523 752.999 241.682 752.999 239.645C752.999 237.565 752.587 235.702 751.764 234.055C750.984 232.408 749.879 231.108 748.449 230.155C747.019 229.202 745.351 228.725 743.444 228.725C741.581 228.725 739.934 229.202 738.504 230.155C737.074 231.108 735.947 232.408 735.124 234.055C734.344 235.702 733.954 237.565 733.954 239.645C733.954 241.682 734.344 243.523 735.124 245.17C735.947 246.817 737.074 248.117 738.504 249.07C739.934 250.023 741.581 250.5 743.444 250.5ZM793.97 222.225C795.097 222.225 796.029 222.615 796.765 223.395C797.502 224.132 797.87 225.063 797.87 226.19V253.815C797.87 257.802 797.112 260.965 795.595 263.305C794.122 265.688 792.129 267.4 789.615 268.44C787.102 269.48 784.285 270 781.165 270C779.779 270 778.305 269.892 776.745 269.675C775.185 269.458 773.907 269.133 772.91 268.7C771.61 268.137 770.7 267.422 770.18 266.555C769.704 265.732 769.617 264.843 769.92 263.89C770.31 262.633 770.939 261.767 771.805 261.29C772.672 260.857 773.582 260.813 774.535 261.16C775.229 261.377 776.139 261.702 777.265 262.135C778.392 262.612 779.692 262.85 781.165 262.85C783.159 262.85 784.805 262.568 786.105 262.005C787.449 261.485 788.445 260.575 789.095 259.275C789.789 258.018 790.135 256.285 790.135 254.075V249.72L791.5 251.28C790.764 252.71 789.832 253.902 788.705 254.855C787.622 255.765 786.322 256.458 784.805 256.935C783.289 257.412 781.555 257.65 779.605 257.65C777.309 257.65 775.294 257.13 773.56 256.09C771.87 255.007 770.549 253.533 769.595 251.67C768.642 249.763 768.165 247.597 768.165 245.17V226.19C768.165 225.063 768.534 224.132 769.27 223.395C770.007 222.615 770.939 222.225 772.065 222.225C773.192 222.225 774.124 222.615 774.86 223.395C775.597 224.132 775.965 225.063 775.965 226.19V242.83C775.965 245.647 776.572 247.64 777.785 248.81C779.042 249.937 780.775 250.5 782.985 250.5C784.502 250.5 785.78 250.218 786.82 249.655C787.86 249.048 788.662 248.182 789.225 247.055C789.789 245.885 790.07 244.477 790.07 242.83V226.19C790.07 225.063 790.439 224.132 791.175 223.395C791.912 222.615 792.844 222.225 793.97 222.225Z" fill="black"/>
<path fill-rule="evenodd" clip-rule="evenodd" d="M211 4H119V96H185.452L211 65.3463V4Z" fill="#ED1A3B"/>
<path d="M162.32 62.61C162.797 62.9033 163.163 63.2883 163.42 63.765C163.713 64.2417 163.86 64.7367 163.86 65.25C163.86 65.91 163.64 66.515 163.2 67.065C162.65 67.725 161.807 68.055 160.67 68.055C159.79 68.055 158.983 67.8533 158.25 67.45C155.61 65.9467 154.29 62.885 154.29 58.265C154.29 56.945 153.85 55.9 152.97 55.13C152.127 54.36 150.898 53.975 149.285 53.975H139V64.645C139 65.635 138.725 66.4417 138.175 67.065C137.662 67.6883 136.965 68 136.085 68C135.022 68 134.087 67.6883 133.28 67.065C132.51 66.405 132.125 65.5983 132.125 64.645V32.855C132.125 31.9017 132.437 31.1133 133.06 30.49C133.72 29.83 134.527 29.5 135.48 29.5H151.32C153.227 29.5 155.023 30.0133 156.71 31.04C158.397 32.0667 159.735 33.4783 160.725 35.275C161.752 37.0717 162.265 39.0883 162.265 41.325C162.265 43.1583 161.77 44.955 160.78 46.715C159.79 48.4383 158.507 49.8133 156.93 50.84C159.24 52.4533 160.505 54.6167 160.725 57.33C160.835 57.9167 160.89 58.485 160.89 59.035C161.037 60.1717 161.183 60.9967 161.33 61.51C161.477 61.9867 161.807 62.3533 162.32 62.61ZM151.045 48.31C151.705 48.31 152.347 47.9983 152.97 47.375C153.593 46.7517 154.107 45.9267 154.51 44.9C154.913 43.8367 155.115 42.7 155.115 41.49C155.115 40.4633 154.913 39.5283 154.51 38.685C154.107 37.805 153.593 37.1083 152.97 36.595C152.347 36.0817 151.705 35.825 151.045 35.825H139V48.31H151.045ZM185.064 38.025C188.804 38.025 191.389 39.1433 192.819 41.38C194.249 43.58 194.964 46.6417 194.964 50.565V64.645C194.964 65.5983 194.652 66.405 194.029 67.065C193.405 67.6883 192.617 68 191.664 68C190.71 68 189.922 67.6883 189.299 67.065C188.675 66.405 188.364 65.5983 188.364 64.645V50.565C188.364 48.5483 187.942 46.9717 187.099 45.835C186.255 44.6617 184.807 44.075 182.754 44.075C180.627 44.075 178.959 44.6983 177.749 45.945C176.539 47.155 175.934 48.695 175.934 50.565V64.645C175.934 65.5983 175.622 66.405 174.999 67.065C174.375 67.6883 173.587 68 172.634 68C171.68 68 170.892 67.6883 170.269 67.065C169.645 66.405 169.334 65.5983 169.334 64.645V41.93C169.334 40.9767 169.645 40.1883 170.269 39.565C170.892 38.905 171.68 38.575 172.634 38.575C173.587 38.575 174.375 38.905 174.999 39.565C175.622 40.1883 175.934 40.9767 175.934 41.93V42.865C176.924 41.545 178.207 40.4083 179.784 39.455C181.397 38.5017 183.157 38.025 185.064 38.025Z" fill="white"/>
<path d="M128.209 89.1127V79.9094H130.16V80.6436H129.094V88.3784H130.16V89.1127H128.209Z" fill="white"/>
<path d="M135.422 86.2963V87.1412H130.664C130.664 86.93 130.694 86.7188 130.775 86.5276C130.895 86.2058 131.087 85.8839 131.348 85.5721C131.62 85.2503 132.002 84.8882 132.505 84.4758C133.289 83.8421 133.822 83.3291 134.094 82.957C134.366 82.5748 134.506 82.2227 134.506 81.8908C134.506 81.5388 134.386 81.2471 134.134 81.0057C133.883 80.7643 133.551 80.6436 133.148 80.6436C132.726 80.6436 132.384 80.7743 132.133 81.0258C131.871 81.2773 131.75 81.6393 131.74 82.092L130.835 81.9914C130.895 81.3175 131.127 80.8045 131.539 80.4424C131.942 80.0904 132.485 79.9093 133.169 79.9093C133.863 79.9093 134.406 80.1004 134.808 80.4827C135.21 80.8649 135.412 81.3477 135.412 81.9109C135.412 82.2026 135.361 82.4842 135.241 82.7558C135.12 83.0374 134.929 83.3291 134.657 83.6409C134.376 83.9427 133.923 84.3651 133.289 84.9083C132.756 85.3508 132.414 85.6526 132.263 85.8135C132.112 85.9744 131.992 86.1354 131.891 86.2963H135.422Z" fill="white"/>
<path d="M140.947 86.2963V87.1412H136.189C136.189 86.93 136.219 86.7188 136.3 86.5276C136.421 86.2058 136.612 85.8839 136.873 85.5721C137.145 85.2503 137.527 84.8882 138.03 84.4758C138.815 83.8421 139.348 83.3291 139.619 82.957C139.891 82.5748 140.032 82.2227 140.032 81.8908C140.032 81.5388 139.911 81.2471 139.659 81.0057C139.408 80.7643 139.076 80.6436 138.674 80.6436C138.251 80.6436 137.909 80.7743 137.658 81.0258C137.396 81.2773 137.276 81.6393 137.266 82.092L136.36 81.9914C136.421 81.3175 136.652 80.8045 137.064 80.4424C137.467 80.0904 138.01 79.9093 138.694 79.9093C139.388 79.9093 139.931 80.1004 140.333 80.4827C140.736 80.8649 140.937 81.3477 140.937 81.9109C140.937 82.2026 140.886 82.4842 140.766 82.7558C140.645 83.0374 140.454 83.3291 140.182 83.6409C139.901 83.9427 139.448 84.3651 138.815 84.9083C138.281 85.3508 137.939 85.6526 137.789 85.8135C137.638 85.9744 137.517 86.1354 137.416 86.2963H140.947Z" fill="white"/>
<path d="M146.595 86.2963V87.1412H141.837C141.837 86.93 141.867 86.7188 141.948 86.5276C142.069 86.2058 142.26 85.8839 142.521 85.5721C142.793 85.2503 143.175 84.8882 143.678 84.4758C144.462 83.8421 144.995 83.3291 145.267 82.957C145.539 82.5748 145.679 82.2227 145.679 81.8908C145.679 81.5388 145.559 81.2471 145.307 81.0057C145.056 80.7643 144.724 80.6436 144.322 80.6436C143.899 80.6436 143.557 80.7743 143.306 81.0258C143.044 81.2773 142.923 81.6393 142.913 82.092L142.008 81.9914C142.069 81.3175 142.3 80.8045 142.712 80.4424C143.115 80.0904 143.658 79.9093 144.342 79.9093C145.036 79.9093 145.579 80.1004 145.981 80.4827C146.384 80.8649 146.585 81.3477 146.585 81.9109C146.585 82.2026 146.534 82.4842 146.414 82.7558C146.293 83.0374 146.102 83.3291 145.83 83.6409C145.549 83.9427 145.096 84.3651 144.462 84.9083C143.929 85.3508 143.587 85.6526 143.436 85.8135C143.286 85.9744 143.165 86.1354 143.064 86.2963H146.595Z" fill="white"/>
<path d="M149.191 89.1432H147.24V88.409H148.306V80.6743H147.24V79.9401H149.191V89.1432Z" fill="white"/>
<path fill-rule="evenodd" clip-rule="evenodd" d="M392 94H300V186H366.452L392 155.346V94Z" fill="#522E92"/>
<path d="M331 160.035C331 161.162 330.588 162.115 329.765 162.895C328.942 163.632 327.988 164 326.905 164C325.735 164 324.76 163.632 323.98 162.895C323.243 162.115 322.875 161.162 322.875 160.035V122.465C322.875 121.338 323.265 120.407 324.045 119.67C324.825 118.89 325.822 118.5 327.035 118.5C328.118 118.5 329.05 118.89 329.83 119.67C330.61 120.407 331 121.338 331 122.465V160.035ZM358.715 128.575C363.135 128.575 366.19 129.897 367.88 132.54C369.57 135.14 370.415 138.758 370.415 143.395V160.035C370.415 161.162 370.047 162.115 369.31 162.895C368.574 163.632 367.642 164 366.515 164C365.389 164 364.457 163.632 363.72 162.895C362.984 162.115 362.615 161.162 362.615 160.035V143.395C362.615 141.012 362.117 139.148 361.12 137.805C360.124 136.418 358.412 135.725 355.985 135.725C353.472 135.725 351.5 136.462 350.07 137.935C348.64 139.365 347.925 141.185 347.925 143.395V160.035C347.925 161.162 347.557 162.115 346.82 162.895C346.084 163.632 345.152 164 344.025 164C342.899 164 341.967 163.632 341.23 162.895C340.494 162.115 340.125 161.162 340.125 160.035V133.19C340.125 132.063 340.494 131.132 341.23 130.395C341.967 129.615 342.899 129.225 344.025 129.225C345.152 129.225 346.084 129.615 346.82 130.395C347.557 131.132 347.925 132.063 347.925 133.19V134.295C349.095 132.735 350.612 131.392 352.475 130.265C354.382 129.138 356.462 128.575 358.715 128.575Z" fill="white"/>
<path d="M309.209 179.113V169.909H311.16V170.644H310.094V178.378H311.16V179.113H309.209Z" fill="white"/>
<path d="M316.422 176.296V177.141H311.664C311.664 176.93 311.694 176.719 311.775 176.528C311.895 176.206 312.087 175.884 312.348 175.572C312.62 175.25 313.002 174.888 313.505 174.476C314.289 173.842 314.822 173.329 315.094 172.957C315.366 172.575 315.506 172.223 315.506 171.891C315.506 171.539 315.386 171.247 315.134 171.006C314.883 170.764 314.551 170.644 314.148 170.644C313.726 170.644 313.384 170.774 313.133 171.026C312.871 171.277 312.75 171.639 312.74 172.092L311.835 171.991C311.895 171.317 312.127 170.805 312.539 170.442C312.942 170.09 313.485 169.909 314.169 169.909C314.863 169.909 315.406 170.1 315.808 170.483C316.21 170.865 316.412 171.348 316.412 171.911C316.412 172.203 316.361 172.484 316.241 172.756C316.12 173.037 315.929 173.329 315.657 173.641C315.376 173.943 314.923 174.365 314.289 174.908C313.756 175.351 313.414 175.653 313.263 175.814C313.113 175.974 312.992 176.135 312.891 176.296H316.422Z" fill="white"/>
<path d="M321.947 176.296V177.141H317.189C317.189 176.93 317.22 176.719 317.3 176.528C317.421 176.206 317.612 175.884 317.873 175.572C318.145 175.25 318.527 174.888 319.03 174.476C319.815 173.842 320.348 173.329 320.619 172.957C320.891 172.575 321.032 172.223 321.032 171.891C321.032 171.539 320.911 171.247 320.659 171.006C320.408 170.764 320.076 170.644 319.674 170.644C319.251 170.644 318.909 170.774 318.658 171.026C318.396 171.277 318.276 171.639 318.266 172.092L317.36 171.991C317.421 171.317 317.652 170.805 318.064 170.442C318.467 170.09 319.01 169.909 319.694 169.909C320.388 169.909 320.931 170.1 321.333 170.483C321.736 170.865 321.937 171.348 321.937 171.911C321.937 172.203 321.887 172.484 321.766 172.756C321.645 173.037 321.454 173.329 321.182 173.641C320.901 173.943 320.448 174.365 319.815 174.908C319.281 175.351 318.939 175.653 318.789 175.814C318.638 175.974 318.517 176.135 318.416 176.296H321.947Z" fill="white"/>
<path d="M327.595 176.296V177.141H322.837C322.837 176.93 322.867 176.719 322.948 176.528C323.069 176.206 323.26 175.884 323.521 175.572C323.793 175.25 324.175 174.888 324.678 174.476C325.462 173.842 325.995 173.329 326.267 172.957C326.539 172.575 326.679 172.223 326.679 171.891C326.679 171.539 326.559 171.247 326.307 171.006C326.056 170.764 325.724 170.644 325.322 170.644C324.899 170.644 324.557 170.774 324.306 171.026C324.044 171.277 323.924 171.639 323.913 172.092L323.008 171.991C323.069 171.317 323.3 170.805 323.712 170.442C324.115 170.09 324.658 169.909 325.342 169.909C326.036 169.909 326.579 170.1 326.981 170.483C327.384 170.865 327.585 171.348 327.585 171.911C327.585 172.203 327.534 172.484 327.414 172.756C327.293 173.037 327.102 173.329 326.83 173.641C326.549 173.943 326.096 174.365 325.462 174.908C324.929 175.351 324.587 175.653 324.436 175.814C324.286 175.974 324.165 176.135 324.064 176.296H327.595Z" fill="white"/>
<path d="M330.191 179.143H328.24V178.409H329.306V170.674H328.24V169.94H330.191V179.143Z" fill="white"/>
<path fill-rule="evenodd" clip-rule="evenodd" d="M641 187H549V279H615.452L641 248.346V187Z" fill="#F78D1E"/>
<path d="M605.56 251.93C605.777 252.493 605.885 253.013 605.885 253.49C605.885 254.617 605.517 255.548 604.78 256.285C604.043 256.978 603.198 257.325 602.245 257.325C601.465 257.325 600.75 257.087 600.1 256.61C599.493 256.133 599.017 255.483 598.67 254.66L595.29 246.795H575.92L572.54 254.725C572.237 255.548 571.76 256.198 571.11 256.675C570.503 257.108 569.832 257.325 569.095 257.325C567.968 257.325 567.102 257.022 566.495 256.415C565.932 255.808 565.65 254.985 565.65 253.945C565.65 253.555 565.715 253.143 565.845 252.71L582.03 213.84C582.377 212.973 582.897 212.302 583.59 211.825C584.283 211.348 585.063 211.153 585.93 211.24C586.71 211.24 587.425 211.478 588.075 211.955C588.768 212.388 589.267 213.017 589.57 213.84L605.56 251.93ZM592.105 239.32L585.54 224.11L579.105 239.32H592.105ZM619.189 253.035C619.189 254.162 618.799 255.115 618.019 255.895C617.282 256.632 616.35 257 615.224 257C614.14 257 613.23 256.632 612.494 255.895C611.757 255.115 611.389 254.162 611.389 253.035V212.865C611.389 211.738 611.757 210.807 612.494 210.07C613.274 209.29 614.227 208.9 615.354 208.9C616.437 208.9 617.347 209.29 618.084 210.07C618.82 210.807 619.189 211.738 619.189 212.865V253.035Z" fill="white"/>
<path d="M558.208 272.113V262.909H560.16V263.644H559.094V271.378H560.16V272.113H558.208Z" fill="white"/>
<path d="M565.422 269.296V270.141H560.664C560.664 269.93 560.694 269.719 560.775 269.528C560.895 269.206 561.087 268.884 561.348 268.572C561.62 268.25 562.002 267.888 562.505 267.476C563.289 266.842 563.822 266.329 564.094 265.957C564.366 265.575 564.506 265.223 564.506 264.891C564.506 264.539 564.386 264.247 564.134 264.006C563.883 263.764 563.551 263.644 563.148 263.644C562.726 263.644 562.384 263.774 562.133 264.026C561.871 264.277 561.75 264.639 561.74 265.092L560.835 264.991C560.895 264.317 561.127 263.805 561.539 263.442C561.942 263.09 562.485 262.909 563.169 262.909C563.863 262.909 564.406 263.1 564.808 263.483C565.21 263.865 565.412 264.348 565.412 264.911C565.412 265.203 565.361 265.484 565.241 265.756C565.12 266.037 564.929 266.329 564.657 266.641C564.376 266.943 563.923 267.365 563.289 267.908C562.756 268.351 562.414 268.653 562.263 268.814C562.113 268.974 561.992 269.135 561.891 269.296H565.422Z" fill="white"/>
<path d="M570.947 269.296V270.141H566.189C566.189 269.93 566.219 269.719 566.3 269.528C566.421 269.206 566.612 268.884 566.873 268.572C567.145 268.25 567.527 267.888 568.03 267.476C568.814 266.842 569.348 266.329 569.619 265.957C569.891 265.575 570.032 265.223 570.032 264.891C570.032 264.539 569.911 264.247 569.659 264.006C569.408 263.764 569.076 263.644 568.674 263.644C568.251 263.644 567.909 263.774 567.658 264.026C567.396 264.277 567.276 264.639 567.265 265.092L566.36 264.991C566.421 264.317 566.652 263.805 567.064 263.442C567.467 263.09 568.01 262.909 568.694 262.909C569.388 262.909 569.931 263.1 570.333 263.483C570.736 263.865 570.937 264.348 570.937 264.911C570.937 265.203 570.886 265.484 570.766 265.756C570.645 266.037 570.454 266.329 570.182 266.641C569.901 266.943 569.448 267.365 568.814 267.908C568.281 268.351 567.939 268.653 567.789 268.814C567.638 268.974 567.517 269.135 567.416 269.296H570.947Z" fill="white"/>
<path d="M576.595 269.296V270.141H571.837C571.837 269.93 571.867 269.719 571.948 269.528C572.068 269.206 572.26 268.884 572.521 268.572C572.793 268.25 573.175 267.888 573.678 267.476C574.462 266.842 574.995 266.329 575.267 265.957C575.539 265.575 575.679 265.223 575.679 264.891C575.679 264.539 575.559 264.247 575.307 264.006C575.056 263.764 574.724 263.644 574.322 263.644C573.899 263.644 573.557 263.774 573.306 264.026C573.044 264.277 572.923 264.639 572.913 265.092L572.008 264.991C572.068 264.317 572.3 263.805 572.712 263.442C573.115 263.09 573.658 262.909 574.342 262.909C575.036 262.909 575.579 263.1 575.981 263.483C576.383 263.865 576.585 264.348 576.585 264.911C576.585 265.203 576.534 265.484 576.414 265.756C576.293 266.037 576.102 266.329 575.83 266.641C575.549 266.943 575.096 267.365 574.462 267.908C573.929 268.351 573.587 268.653 573.436 268.814C573.286 268.974 573.165 269.135 573.064 269.296H576.595Z" fill="white"/>
<path d="M579.191 272.143H577.24V271.409H578.306V263.674H577.24V262.94H579.191V272.143Z" fill="white"/>
</svg>
